<svg xmlns="http://www.w3.org/2000/svg" xmlns:xlink="http://www.w3.org/1999/xlink" xmlns:svgjs="http://svgjs.com/svgjs" id="SvgjsSvg1001" version="1.1" viewBox="1.21 112.92 285.57 62.16"><defs id="SvgjsDefs1002"/><g id="SvgjsG1008"><svg xmlns="http://www.w3.org/2000/svg" enable-background="new 0 0 311 69" viewBox="0 0 311 69" width="288" height="288"><path fill="#f35555" d="M73.65 25.08l6.5-.41c.14 1.06.43 1.86.86 2.41.7.9 1.71 1.34 3.02 1.34.98 0 1.73-.23 2.26-.69.53-.46.79-.99.79-1.59 0-.57-.25-1.09-.75-1.54-.5-.45-1.67-.88-3.5-1.28-3-.67-5.13-1.57-6.41-2.69-1.29-1.12-1.93-2.54-1.93-4.27 0-1.14.33-2.21.99-3.22.66-1.01 1.65-1.81 2.97-2.38 1.32-.58 3.14-.87 5.44-.87 2.83 0 4.98.53 6.46 1.58 1.48 1.05 2.37 2.72 2.65 5.02l-6.44.38c-.17-1-.53-1.72-1.08-2.17-.55-.45-1.3-.68-2.27-.68-.79 0-1.39.17-1.8.51-.4.34-.6.75-.6 1.23 0 .35.17.67.5.95.32.29 1.09.56 2.29.81 2.99.64 5.13 1.29 6.42 1.95 1.29.66 2.23 1.48 2.82 2.45.59.98.88 2.07.88 3.27 0 1.42-.39 2.73-1.18 3.92-.78 1.2-1.88 2.1-3.29 2.72-1.41.62-3.18.93-5.33.93-3.76 0-6.37-.72-7.81-2.17C74.66 29.16 73.84 27.31 73.65 25.08zM110.63 28.75h-7.76l-1.08 3.65h-6.98l8.31-22.11h7.45l8.31 22.11h-7.16L110.63 28.75zM109.21 23.97l-2.44-7.95-2.42 7.95H109.21zM117.26 10.28h20.77v5.46h-6.97V32.4h-6.83V15.74h-6.97V10.28zM141.03 10.28h6.83v7.74h7.47v-7.74h6.86V32.4h-6.86v-8.95h-7.47v8.95h-6.83V10.28zM164.38 10.28h7.59l4.46 7.46 4.46-7.46h7.55l-8.6 12.85v9.26h-6.85v-9.26L164.38 10.28zM201.2 28.75h-7.76l-1.08 3.65h-6.98l8.31-22.11h7.45l8.31 22.11h-7.16L201.2 28.75zM199.78 23.97l-2.44-7.95-2.42 7.95H199.78zM211.53 10.28h12.79c2.13 0 3.77.53 4.91 1.58 1.14 1.06 1.71 2.36 1.71 3.92 0 1.31-.41 2.43-1.22 3.36-.54.62-1.34 1.12-2.38 1.48 1.59.38 2.76 1.04 3.51 1.97.75.93 1.12 2.1 1.12 3.51 0 1.15-.27 2.18-.8 3.09-.53.92-1.26 1.64-2.19 2.17-.57.33-1.44.57-2.59.72-1.54.2-2.56.3-3.06.3h-11.8V10.28zM218.42 18.96h2.97c1.07 0 1.81-.18 2.22-.55.42-.37.63-.9.63-1.59 0-.64-.21-1.15-.63-1.51-.42-.36-1.14-.54-2.18-.54h-3.02V18.96zM218.42 27.65h3.48c1.18 0 2.01-.21 2.49-.63.48-.42.72-.98.72-1.68 0-.65-.24-1.18-.72-1.58-.48-.4-1.32-.6-2.51-.6h-3.47V27.65zM248.49 28.75h-7.76l-1.08 3.65h-6.98l8.31-22.11h7.45l8.31 22.11h-7.16L248.49 28.75zM247.07 23.97l-2.44-7.95-2.42 7.95H247.07zM258.72 10.28h8.99l3.47 13.46 3.44-13.46h8.98V32.4H278V15.53l-4.31 16.86h-5.07l-4.3-16.86V32.4h-5.6V10.28zM301.43 28.75h-7.76l-1.08 3.65h-6.98l8.31-22.11h7.45l8.31 22.11h-7.16L301.43 28.75zM300.01 23.97l-2.44-7.95-2.42 7.95H300.01z" class="colorfff svgShape"/><g fill="#981b1b" class="color000 svgShape"><path fill="#f35555" d="M73.32 39.14h1.82v6.87h-1.82V39.14zM77.58 39.14h1.7l2.22 3.8v-3.8h1.72v6.87H81.5l-2.21-3.77v3.77h-1.71V39.14zM85.22 43.73l1.73-.13c.04.33.11.58.23.75.19.28.46.42.8.42.26 0 .46-.07.6-.21.14-.14.21-.31.21-.49 0-.18-.07-.34-.2-.48-.13-.14-.44-.27-.93-.4-.8-.21-1.37-.49-1.71-.83-.34-.35-.51-.79-.51-1.33 0-.35.09-.69.26-1 .18-.31.44-.56.79-.74.35-.18.84-.27 1.45-.27.75 0 1.33.16 1.72.49.4.33.63.85.71 1.56l-1.72.12c-.05-.31-.14-.53-.29-.67-.15-.14-.35-.21-.6-.21-.21 0-.37.05-.48.16-.11.1-.16.23-.16.38 0 .11.04.21.13.3.09.09.29.17.61.25.8.2 1.37.4 1.71.61.34.2.59.46.75.76.16.3.24.64.24 1.02 0 .44-.1.85-.31 1.22-.21.37-.5.65-.88.85-.38.19-.85.29-1.42.29-1 0-1.7-.22-2.08-.67S85.27 44.43 85.22 43.73zM92.19 39.14h5.53v1.7h-1.86v5.17h-1.82v-5.17h-1.86V39.14zM99.74 39.14h1.82v6.87h-1.82V39.14zM103.57 39.14h5.53v1.7h-1.86v5.17h-1.82v-5.17h-1.86V39.14zM114.88 39.14h1.82v4.09c0 .41-.05.79-.16 1.15-.11.36-.28.68-.51.95-.23.27-.47.46-.73.57-.35.15-.78.23-1.27.23-.29 0-.6-.02-.94-.07-.34-.05-.62-.14-.85-.28-.23-.14-.44-.34-.62-.59-.19-.26-.32-.52-.39-.79-.11-.44-.17-.82-.17-1.16v-4.09h1.82v4.19c0 .37.09.67.27.88.18.21.43.32.74.32.31 0 .56-.1.74-.31.18-.21.27-.5.27-.88V39.14zM118.61 39.14h5.53v1.7h-1.86v5.17h-1.82v-5.17h-1.86V39.14zM126.08 39.14h4.88v1.47h-3.05v1.09h2.83v1.4h-2.83v1.35h3.14v1.55h-4.97V39.14zM136.79 42.58c0-1.12.27-1.99.8-2.62.54-.62 1.28-.94 2.24-.94.98 0 1.74.31 2.27.92.53.61.8 1.47.8 2.58 0 .8-.12 1.46-.35 1.97-.23.51-.57.91-1 1.2-.44.29-.98.43-1.64.43-.66 0-1.21-.12-1.65-.37-.44-.25-.79-.64-1.06-1.17C136.92 44.05 136.79 43.38 136.79 42.58zM138.61 42.59c0 .69.11 1.19.33 1.49.22.3.52.45.9.45.39 0 .69-.15.91-.44.21-.3.32-.83.32-1.6 0-.65-.11-1.12-.34-1.42-.22-.3-.53-.45-.91-.45-.37 0-.66.15-.88.45C138.72 41.39 138.61 41.89 138.61 42.59zM145 39.14h4.5v1.48h-2.67v1.2h2.28v1.39h-2.28v2.81H145V39.14zM155.14 43.73l1.73-.13c.04.33.11.58.23.75.19.28.46.42.8.42.26 0 .46-.07.6-.21.14-.14.21-.31.21-.49 0-.18-.07-.34-.2-.48-.13-.14-.44-.27-.93-.4-.8-.21-1.37-.49-1.71-.83-.34-.35-.51-.79-.51-1.33 0-.35.09-.69.26-1 .18-.31.44-.56.79-.74.35-.18.84-.27 1.45-.27.75 0 1.33.16 1.72.49.4.33.63.85.71 1.56l-1.72.12c-.05-.31-.14-.53-.29-.67s-.35-.21-.6-.21c-.21 0-.37.05-.48.16-.11.1-.16.23-.16.38 0 .11.04.21.13.3.09.09.29.17.61.25.8.2 1.37.4 1.71.61.34.2.59.46.75.76.16.3.24.64.24 1.02 0 .44-.1.85-.31 1.22-.21.37-.5.65-.88.85-.38.19-.85.29-1.42.29-1 0-1.7-.22-2.08-.67C155.41 45 155.2 44.43 155.14 43.73zM166.45 43.19l1.6.56c-.11.52-.28.96-.51 1.31-.23.35-.52.61-.86.79-.34.18-.78.27-1.3.27-.64 0-1.16-.11-1.57-.33-.41-.22-.76-.6-1.05-1.14-.29-.55-.44-1.24-.44-2.1 0-1.14.26-2.01.78-2.62.52-.61 1.25-.92 2.2-.92.74 0 1.33.17 1.75.52.42.35.74.89.95 1.61l-1.61.42c-.06-.21-.12-.36-.18-.46-.1-.16-.23-.29-.37-.37-.15-.09-.31-.13-.49-.13-.41 0-.73.19-.95.58-.17.29-.25.74-.25 1.35 0 .76.1 1.28.3 1.56.2.28.48.42.84.42.35 0 .61-.11.79-.34C166.24 43.96 166.37 43.63 166.45 43.19zM170.12 39.14h1.82v6.87h-1.82V39.14zM174.36 39.14h4.88v1.47h-3.05v1.09h2.83v1.4h-2.83v1.35h3.14v1.55h-4.97V39.14zM181.44 39.14h1.7l2.22 3.8v-3.8h1.72v6.87h-1.72l-2.21-3.77v3.77h-1.71V39.14zM193.33 43.19l1.6.56c-.11.52-.28.96-.51 1.31-.23.35-.52.61-.86.79-.34.18-.78.27-1.3.27-.64 0-1.16-.11-1.57-.33-.41-.22-.76-.6-1.05-1.14-.29-.55-.44-1.24-.44-2.1 0-1.14.26-2.01.78-2.62.52-.61 1.25-.92 2.2-.92.74 0 1.33.17 1.75.52.42.35.74.89.95 1.61l-1.61.42c-.06-.21-.12-.36-.18-.46-.1-.16-.23-.29-.37-.37-.15-.09-.31-.13-.49-.13-.41 0-.73.19-.95.58-.17.29-.25.74-.25 1.35 0 .76.1 1.28.3 1.56.2.28.48.42.84.42.35 0 .61-.11.79-.34C193.12 43.96 193.25 43.63 193.33 43.19zM196.92 39.14h4.88v1.47h-3.05v1.09h2.83v1.4h-2.83v1.35h3.14v1.55h-4.97V39.14zM211.47 44.87h-2.07l-.29 1.13h-1.86l2.21-6.87h1.99l2.21 6.87h-1.91L211.47 44.87zM211.1 43.39l-.65-2.47-.64 2.47H211.1zM215.38 39.14h1.7l2.22 3.8v-3.8h1.72v6.87h-1.72l-2.21-3.77v3.77h-1.71V39.14zM223.37 39.14h2.7c.53 0 .96.08 1.29.25.33.17.6.41.81.73.21.32.37.68.47 1.1.1.42.14.86.14 1.33 0 .73-.07 1.3-.21 1.71-.14.4-.34.74-.6 1.02-.25.27-.53.46-.82.55-.4.12-.76.19-1.08.19h-2.7V39.14zM225.19 40.69v3.75h.45c.38 0 .65-.05.81-.15.16-.1.29-.27.38-.52.09-.24.14-.64.14-1.19 0-.73-.1-1.23-.31-1.49-.2-.27-.54-.4-1.01-.4H225.19zM234.32 39.14h5.53v1.7H238v5.17h-1.82v-5.17h-1.86V39.14zM241.79 39.14h4.88v1.47h-3.05v1.09h2.83v1.4h-2.83v1.35h3.14v1.55h-4.97V39.14zM252.78 43.19l1.6.56c-.11.52-.28.96-.51 1.31-.23.35-.52.61-.86.79-.34.18-.78.27-1.3.27-.64 0-1.16-.11-1.57-.33-.41-.22-.76-.6-1.05-1.14-.29-.55-.44-1.24-.44-2.1 0-1.14.26-2.01.78-2.62.52-.61 1.25-.92 2.2-.92.74 0 1.33.17 1.75.52.42.35.74.89.95 1.61l-1.61.42c-.06-.21-.12-.36-.18-.46-.1-.16-.23-.29-.37-.37-.15-.09-.31-.13-.49-.13-.41 0-.73.19-.95.58-.17.29-.25.74-.25 1.35 0 .76.1 1.28.3 1.56.2.28.48.42.84.42.35 0 .61-.11.79-.34C252.57 43.96 252.7 43.63 252.78 43.19zM256.39 39.14h1.82v2.4h1.99v-2.4h1.83v6.87h-1.83v-2.78h-1.99v2.78h-1.82V39.14zM264.37 39.14h1.7l2.22 3.8v-3.8H270v6.87h-1.72l-2.21-3.77v3.77h-1.71V39.14zM272.1 42.58c0-1.12.27-1.99.8-2.62.54-.62 1.28-.94 2.24-.94.98 0 1.74.31 2.27.92.53.61.8 1.47.8 2.58 0 .8-.12 1.46-.35 1.97-.23.51-.57.91-1 1.2-.44.29-.98.43-1.64.43-.66 0-1.21-.12-1.65-.37-.44-.25-.79-.64-1.06-1.17C272.23 44.05 272.1 43.38 272.1 42.58zM273.92 42.59c0 .69.11 1.19.33 1.49.22.3.52.45.9.45.39 0 .69-.15.91-.44.21-.3.32-.83.32-1.6 0-.65-.11-1.12-.34-1.42-.22-.3-.53-.45-.91-.45-.37 0-.66.15-.88.45C274.03 41.39 273.92 41.89 273.92 42.59zM280.3 39.14h1.82v5.18h2.84v1.69h-4.66V39.14zM286.54 42.58c0-1.12.27-1.99.8-2.62.54-.62 1.28-.94 2.24-.94.98 0 1.74.31 2.27.92.53.61.8 1.47.8 2.58 0 .8-.12 1.46-.35 1.97-.23.51-.57.91-1 1.2-.44.29-.98.43-1.64.43-.66 0-1.21-.12-1.65-.37-.44-.25-.79-.64-1.06-1.17C286.68 44.05 286.54 43.38 286.54 42.58zM288.36 42.59c0 .69.11 1.19.33 1.49.22.3.52.45.9.45.39 0 .69-.15.91-.44.21-.3.32-.83.32-1.6 0-.65-.11-1.12-.34-1.42-.22-.3-.53-.45-.91-.45-.37 0-.66.15-.88.45C288.47 41.39 288.36 41.89 288.36 42.59zM297.71 43.52v-1.43h2.81v2.93c-.54.43-1.01.72-1.43.87-.41.15-.9.23-1.47.23-.7 0-1.27-.14-1.71-.42-.44-.28-.78-.69-1.02-1.24-.24-.55-.36-1.18-.36-1.89 0-.75.13-1.4.4-1.96.27-.55.65-.97 1.17-1.26.4-.22.94-.33 1.61-.33.65 0 1.14.07 1.46.21.32.14.59.35.8.64.21.29.37.66.48 1.1l-1.76.37c-.07-.26-.19-.46-.37-.59-.17-.14-.39-.21-.66-.21-.4 0-.72.16-.95.48-.24.32-.36.83-.36 1.53 0 .74.12 1.27.36 1.59.24.32.57.48 1 .48.2 0 .4-.03.58-.1.18-.07.4-.19.64-.35v-.65H297.71zM302.13 39.14h2.02l1.19 2.32 1.19-2.32h2.01l-2.29 3.99v2.88h-1.82v-2.88L302.13 39.14z" class="colorfff svgShape"/></g><g fill="#981b1b" class="color000 svgShape"><path fill="#f35555" d="M118.14 49.6h.94c-.32.71-.55 1.37-.7 1.97-.12.51-.18 1.06-.18 1.64 0 1.12.29 2.28.88 3.46h-.94c-.48-.68-.81-1.29-1-1.83-.19-.55-.29-1.12-.29-1.72 0-.62.1-1.21.3-1.77C117.35 50.8 117.68 50.21 118.14 49.6zM120.97 49.69h2.48c.49 0 .88.07 1.18.2.3.13.55.32.75.57.2.25.34.54.43.87.09.33.13.68.13 1.05 0 .58-.07 1.02-.2 1.34-.13.32-.31.58-.55.8-.23.21-.48.36-.75.43-.37.1-.7.15-.99.15h-2.48V49.69zM122.64 50.92v2.95h.41c.35 0 .6-.04.74-.12.15-.08.26-.21.35-.41.08-.19.13-.51.13-.94 0-.57-.09-.96-.28-1.17-.19-.21-.5-.32-.93-.32H122.64zM127.83 49.69h4.47v1.15h-2.8v.86h2.6v1.1h-2.6v1.06h2.88v1.22h-4.55V49.69zM134.31 49.69h4.47v1.15h-2.8v.86h2.6v1.1h-2.6v1.06h2.88v1.22h-4.55V49.69zM140.77 49.69h2.19l.85 3.28.84-3.28h2.19v5.4h-1.37v-4.12l-1.05 4.12h-1.24l-1.05-4.12v4.12h-1.37V49.69zM148.92 49.69h4.47v1.15h-2.8v.86h2.6v1.1h-2.6v1.06h2.88v1.22h-4.55V49.69zM155.42 49.69h2.48c.49 0 .88.07 1.18.2.3.13.55.32.75.57.2.25.34.54.43.87.09.33.13.68.13 1.05 0 .58-.07 1.02-.2 1.34-.13.32-.31.58-.55.8-.23.21-.48.36-.75.43-.37.1-.7.15-.99.15h-2.48V49.69zM157.09 50.92v2.95h.41c.35 0 .6-.04.74-.12.15-.08.26-.21.35-.41.08-.19.13-.51.13-.94 0-.57-.09-.96-.28-1.17-.19-.21-.5-.32-.93-.32H157.09zM165.45 49.69h5.07v1.33h-1.7v4.07h-1.67v-4.07h-1.7V49.69zM171.84 52.4c0-.88.25-1.57.74-2.06.49-.49 1.17-.74 2.05-.74.9 0 1.59.24 2.08.72.49.48.73 1.16.73 2.03 0 .63-.11 1.15-.32 1.55-.21.4-.52.72-.92.94-.4.22-.9.34-1.5.34-.61 0-1.11-.1-1.51-.29-.4-.19-.72-.5-.97-.92C171.96 53.55 171.84 53.03 171.84 52.4zM173.51 52.4c0 .55.1.94.3 1.17.2.24.48.36.83.36.36 0 .64-.12.83-.35.2-.23.29-.65.29-1.26 0-.51-.1-.88-.31-1.11-.21-.23-.48-.35-.83-.35-.34 0-.61.12-.81.36C173.61 51.46 173.51 51.85 173.51 52.4zM182.9 49.69h3.12c.52 0 .92.13 1.2.39.28.26.42.58.42.96 0 .32-.1.59-.3.82-.13.15-.33.27-.58.36.39.09.67.25.86.48.18.23.27.51.27.86 0 .28-.07.53-.2.76-.13.22-.31.4-.53.53-.14.08-.35.14-.63.18-.38.05-.62.07-.75.07h-2.88V49.69zM184.59 51.81h.73c.26 0 .44-.04.54-.13.1-.09.15-.22.15-.39 0-.16-.05-.28-.15-.37-.1-.09-.28-.13-.53-.13h-.74V51.81zM184.59 53.93h.85c.29 0 .49-.05.61-.15.12-.1.18-.24.18-.41 0-.16-.06-.29-.18-.38-.12-.1-.32-.15-.61-.15h-.85V53.93zM189.79 49.69h4.47v1.15h-2.8v.86h2.6v1.1h-2.6v1.06h2.88v1.22h-4.55V49.69zM203.32 49.69h1.66v3.22c0 .32-.05.62-.15.9-.1.28-.26.53-.47.74-.21.21-.44.36-.67.45-.32.12-.71.18-1.17.18-.26 0-.55-.02-.86-.06-.31-.04-.57-.11-.78-.22-.21-.11-.4-.26-.57-.47-.17-.2-.29-.41-.36-.62-.1-.34-.15-.65-.15-.91v-3.22h1.66v3.29c0 .29.08.52.24.69.16.17.39.25.68.25.29 0 .51-.08.68-.24.16-.16.24-.39.24-.69V49.69zM207.12 49.69h1.56l2.03 2.99v-2.99h1.57v5.4h-1.57l-2.02-2.96v2.96h-1.57V49.69zM214.49 49.69h1.67v5.4h-1.67V49.69zM217.85 49.69h1.74l1.22 3.89 1.2-3.89h1.69l-2 5.4h-1.81L217.85 49.69zM225.27 49.69h4.47v1.15h-2.8v.86h2.6v1.1h-2.6v1.06h2.88v1.22h-4.55V49.69zM231.77 55.09v-5.4h2.78c.52 0 .91.04 1.18.13.27.09.49.25.66.49.17.24.25.53.25.87 0 .3-.06.56-.19.78-.13.22-.3.39-.53.53-.14.09-.34.16-.59.21.2.07.34.13.43.2.06.04.15.14.27.28.12.15.19.26.23.34l.81 1.56h-1.88l-.89-1.65c-.11-.21-.21-.35-.3-.42-.12-.08-.26-.13-.41-.13h-.15v2.19H231.77zM233.44 51.88h.7c.08 0 .22-.02.44-.07.11-.02.2-.08.27-.17.07-.09.1-.2.1-.31 0-.17-.06-.31-.17-.4-.11-.09-.32-.14-.62-.14h-.73V51.88zM238.35 53.31l1.59-.1c.03.26.1.45.21.59.17.22.42.33.74.33.24 0 .42-.06.55-.17.13-.11.19-.24.19-.39 0-.14-.06-.27-.18-.38-.12-.11-.41-.21-.85-.31-.73-.16-1.25-.38-1.57-.66-.31-.27-.47-.62-.47-1.04 0-.28.08-.54.24-.79.16-.25.4-.44.73-.58.32-.14.77-.21 1.33-.21.69 0 1.22.13 1.58.38.36.26.58.66.65 1.22l-1.57.09c-.04-.24-.13-.42-.26-.53-.13-.11-.32-.17-.55-.17-.19 0-.34.04-.44.12-.1.08-.15.18-.15.3 0 .09.04.16.12.23.08.07.27.14.56.2.73.16 1.25.32 1.57.48.32.16.54.36.69.6.14.24.22.5.22.8 0 .35-.1.67-.29.96-.19.29-.46.51-.8.66-.34.15-.78.23-1.3.23-.92 0-1.55-.18-1.91-.53C238.6 54.3 238.4 53.85 238.35 53.31zM245.18 49.69h1.67v5.4h-1.67V49.69zM248.69 49.69h5.07v1.33h-1.7v4.07h-1.67v-4.07h-1.7V49.69zM255 49.69h1.85l1.09 1.82 1.09-1.82h1.84l-2.1 3.14v2.26h-1.67v-2.26L255 49.69zM264.1 51.36c.2.56.3 1.15.3 1.77 0 .6-.1 1.17-.29 1.72-.19.55-.53 1.16-1 1.83h-.94c.58-1.19.88-2.34.88-3.46 0-.58-.06-1.13-.18-1.64-.14-.6-.37-1.26-.7-1.97h.94C263.57 50.21 263.9 50.8 264.1 51.36z" class="colorfff svgShape"/></g><g fill="#981b1b" class="color000 svgShape"><path fill="#f35555" d="M78.07 64.01h-.96l-.38-.99h-1.75l-.36.99h-.94l1.7-4.37h.93L78.07 64.01zM76.45 62.27l-.6-1.62-.59 1.62H76.45zM81.3 61.77l-.83.15c-.03-.17-.09-.29-.19-.37-.1-.08-.23-.13-.38-.13-.21 0-.38.07-.5.22-.12.14-.19.39-.19.72 0 .38.06.64.19.8.13.16.3.23.51.23.16 0 .29-.05.39-.14.1-.09.17-.25.21-.47l.82.14c-.09.38-.25.66-.49.86-.24.19-.57.29-.98.29-.46 0-.83-.15-1.11-.44-.28-.29-.41-.7-.41-1.21 0-.52.14-.93.41-1.22.28-.29.65-.44 1.12-.44.39 0 .69.08.92.25C81.03 61.18 81.2 61.43 81.3 61.77zM84.7 61.77l-.83.15c-.03-.17-.09-.29-.19-.37-.1-.08-.23-.13-.38-.13-.21 0-.38.07-.5.22-.12.14-.19.39-.19.72 0 .38.06.64.19.8.13.16.3.23.51.23.16 0 .29-.05.39-.14.1-.09.17-.25.21-.47l.82.14c-.09.38-.25.66-.49.86-.24.19-.57.29-.98.29-.46 0-.83-.15-1.11-.44-.28-.29-.41-.7-.41-1.21 0-.52.14-.93.41-1.22.28-.29.65-.44 1.12-.44.39 0 .69.08.92.25C84.43 61.18 84.6 61.43 84.7 61.77zM86.14 64.01H85.3v-3.17h.78v.45c.13-.21.25-.35.36-.42.11-.07.23-.1.36-.1.19 0 .37.05.55.16l-.26.73c-.14-.09-.27-.14-.39-.14-.12 0-.22.03-.3.1-.08.06-.15.18-.19.35-.05.17-.07.52-.07 1.06V64.01zM89.55 63l.84.14c-.11.31-.28.54-.51.7C89.64 64 89.35 64.08 89 64.08c-.55 0-.96-.18-1.22-.54-.21-.29-.31-.65-.31-1.09 0-.53.14-.94.41-1.23.27-.3.62-.45 1.04-.45.47 0 .84.16 1.12.47.27.31.4.79.39 1.43h-2.1c.01.25.07.44.2.58.13.14.29.21.48.21.13 0 .24-.04.33-.11C89.43 63.27 89.5 63.16 89.55 63zM89.59 62.15c-.01-.24-.07-.43-.19-.55-.12-.13-.26-.19-.44-.19-.18 0-.33.07-.45.2-.12.13-.18.31-.18.54H89.59zM94.02 64.01h-.78v-.47c-.13.18-.28.32-.46.4-.18.09-.35.13-.53.13-.36 0-.68-.15-.94-.44-.26-.29-.39-.7-.39-1.23 0-.54.13-.95.38-1.22s.57-.42.96-.42c.35 0 .66.15.92.44v-1.58h.84V64.01zM91.78 62.35c0 .34.05.58.14.73.14.22.32.33.57.33.19 0 .36-.08.49-.25.14-.16.2-.41.2-.74 0-.36-.07-.63-.2-.79-.13-.16-.3-.24-.5-.24-.2 0-.37.08-.5.24C91.85 61.8 91.78 62.04 91.78 62.35zM94.84 60.41v-.78h.84v.78H94.84zM94.84 64.01v-3.17h.84v3.17H94.84zM98 60.84v.67h-.57v1.28c0 .26.01.41.02.45.01.04.04.08.07.11.04.03.09.04.14.04.08 0 .19-.03.34-.08l.07.65c-.19.08-.42.13-.66.13-.15 0-.29-.03-.41-.08-.12-.05-.21-.12-.27-.2-.06-.08-.1-.19-.12-.33-.02-.1-.03-.29-.03-.59V61.5H96.2v-.67h.39v-.63l.84-.49v1.12H98zM100.41 63l.84.14c-.11.31-.28.54-.51.7-.23.16-.52.24-.87.24-.55 0-.96-.18-1.22-.54-.21-.29-.31-.65-.31-1.09 0-.53.14-.94.41-1.23.27-.3.62-.45 1.04-.45.47 0 .84.16 1.12.47.27.31.4.79.39 1.43h-2.1c.01.25.07.44.2.58.13.14.29.21.48.21.13 0 .24-.04.33-.11C100.3 63.27 100.37 63.16 100.41 63zM100.46 62.15c-.01-.24-.07-.43-.19-.55-.12-.13-.26-.19-.44-.19-.18 0-.33.07-.45.2-.12.13-.18.31-.18.54H100.46zM104.88 64.01h-.78v-.47c-.13.18-.28.32-.46.4-.18.09-.35.13-.53.13-.36 0-.68-.15-.94-.44-.26-.29-.39-.7-.39-1.23 0-.54.13-.95.38-1.22.25-.28.57-.42.96-.42.35 0 .66.15.92.44v-1.58h.84V64.01zM102.64 62.35c0 .34.05.58.14.73.14.22.32.33.57.33.19 0 .36-.08.49-.25.14-.16.2-.41.2-.74 0-.36-.07-.63-.2-.79-.13-.16-.3-.24-.5-.24-.2 0-.37.08-.5.24C102.71 61.8 102.64 62.04 102.64 62.35zM108 64.01l-1-3.17h.81l.59 2.08.55-2.08h.81l.53 2.08.61-2.08h.83l-1.02 3.17h-.81l-.55-2.04-.54 2.04H108zM112.16 60.41v-.78H113v.78H112.16zM112.16 64.01v-3.17H113v3.17H112.16zM115.31 60.84v.67h-.57v1.28c0 .26.01.41.02.45.01.04.04.08.07.11.04.03.09.04.14.04.08 0 .19-.03.34-.08l.07.65c-.19.08-.42.13-.66.13-.15 0-.29-.03-.41-.08-.12-.05-.21-.12-.27-.2-.06-.08-.1-.19-.12-.33-.02-.1-.03-.29-.03-.59V61.5h-.39v-.67h.39v-.63l.84-.49v1.12H115.31zM116.73 59.63v1.61c.27-.32.59-.47.97-.47.19 0 .37.04.52.11.16.07.27.16.35.27.08.11.13.23.16.37.03.14.04.35.04.63v1.86h-.84v-1.67c0-.33-.02-.54-.05-.63-.03-.09-.09-.16-.17-.21-.08-.05-.18-.08-.3-.08-.14 0-.26.03-.37.1-.11.07-.19.17-.24.31-.05.14-.08.34-.08.6v1.59h-.84v-4.37H116.73zM123.37 62.4v-.74h1.9v1.74c-.19.18-.45.34-.8.47-.35.14-.71.2-1.07.2-.46 0-.86-.1-1.2-.29-.34-.19-.6-.47-.77-.82-.17-.36-.26-.75-.26-1.17 0-.46.1-.86.29-1.21.19-.35.47-.63.84-.81.28-.15.63-.22 1.05-.22.54 0 .97.11 1.27.34.31.23.5.54.59.94l-.88.16c-.06-.21-.18-.38-.35-.51-.17-.12-.38-.19-.64-.19-.39 0-.69.12-.92.37-.23.24-.34.61-.34 1.09 0 .52.12.91.35 1.17.23.26.53.39.91.39.18 0 .37-.04.56-.11.19-.07.35-.16.48-.26V62.4H123.37zM126.88 64.01h-.84v-3.17h.78v.45c.13-.21.25-.35.36-.42.11-.07.23-.1.36-.1.19 0 .38.05.55.16l-.26.73c-.14-.09-.27-.14-.39-.14-.12 0-.22.03-.3.1-.08.06-.15.18-.19.35-.05.17-.07.52-.07 1.06V64.01zM129.09 61.8l-.76-.14c.09-.31.23-.53.44-.68.21-.15.52-.22.93-.22.37 0 .65.04.84.13.18.09.31.2.39.34.07.14.11.39.11.75l-.01.98c0 .28.01.48.04.62.03.13.08.27.15.43h-.83c-.02-.06-.05-.14-.08-.25-.01-.05-.02-.08-.03-.1-.14.14-.3.24-.46.31-.16.07-.34.1-.52.1-.33 0-.58-.09-.77-.27s-.28-.4-.28-.67c0-.18.04-.34.13-.48.09-.14.21-.25.36-.32s.38-.14.67-.2c.39-.07.66-.14.81-.21v-.08c0-.16-.04-.28-.12-.34-.08-.07-.23-.1-.45-.1-.15 0-.27.03-.35.09C129.21 61.55 129.14 61.66 129.09 61.8zM130.21 62.48c-.11.04-.28.08-.51.13-.23.05-.39.1-.46.15-.11.08-.16.18-.16.3 0 .12.04.22.13.3.09.09.2.13.33.13.15 0 .3-.05.43-.15.1-.08.17-.17.2-.28.02-.07.03-.21.03-.41V62.48zM134.76 64.01h-.78v-.47c-.13.18-.28.32-.46.4-.18.09-.35.13-.53.13-.36 0-.68-.15-.94-.44-.26-.29-.39-.7-.39-1.23 0-.54.13-.95.38-1.22.25-.28.57-.42.96-.42.35 0 .66.15.92.44v-1.58h.84V64.01zM132.53 62.35c0 .34.05.58.14.73.14.22.32.33.57.33.19 0 .36-.08.49-.25.14-.16.2-.41.2-.74 0-.36-.07-.63-.2-.79-.13-.16-.3-.24-.5-.24-.2 0-.37.08-.5.24C132.59 61.8 132.53 62.04 132.53 62.35zM137.43 63l.84.14c-.11.31-.28.54-.51.7-.23.16-.52.24-.87.24-.55 0-.96-.18-1.22-.54-.21-.29-.31-.65-.31-1.09 0-.53.14-.94.41-1.23.27-.3.62-.45 1.04-.45.47 0 .84.16 1.12.47.27.31.4.79.39 1.43h-2.1c.01.25.07.44.2.58.13.14.29.21.48.21.13 0 .24-.04.33-.11C137.31 63.27 137.38 63.16 137.43 63zM137.47 62.15c-.01-.24-.07-.43-.19-.55-.12-.13-.26-.19-.44-.19-.18 0-.33.07-.45.2-.12.13-.18.31-.18.54H137.47zM141.48 61.4h-.84v-.6c0-.24.02-.43.06-.57.04-.14.12-.27.24-.38.12-.11.26-.2.44-.26l.16.35c-.17.06-.29.13-.36.23-.07.1-.11.23-.11.4h.41V61.4zM142.88 61.4h-.84v-.6c0-.24.02-.44.06-.58.04-.14.12-.26.24-.38.12-.11.26-.2.44-.26l.16.35c-.17.06-.29.13-.36.23-.07.1-.11.23-.11.4h.41V61.4zM147.7 64.01h-.96l-.38-.99h-1.75l-.36.99h-.94l1.7-4.37h.93L147.7 64.01zM146.07 62.27l-.6-1.62-.59 1.62H146.07zM148.1 59.63h.84v.6c0 .24-.02.43-.06.57-.04.14-.12.27-.24.38s-.26.2-.44.26l-.16-.35c.17-.06.29-.13.36-.23.07-.1.11-.23.11-.4h-.41V59.63zM149.51 59.63h.84v.6c0 .24-.02.43-.06.57-.04.14-.12.27-.24.38-.12.11-.26.2-.44.26l-.16-.35c.17-.06.29-.13.36-.23.07-.1.11-.23.11-.4h-.4V59.63zM152.88 64.01v-4.37h.84v1.58c.26-.29.57-.44.92-.44.39 0 .71.14.96.42.25.28.38.68.38 1.2 0 .54-.13.96-.39 1.25-.26.29-.57.44-.94.44-.18 0-.36-.05-.54-.14-.18-.09-.33-.22-.46-.4v.47H152.88zM153.71 62.35c0 .33.05.57.16.73.15.22.34.33.58.33.19 0 .34-.08.47-.24.13-.16.2-.41.2-.75 0-.36-.07-.62-.2-.78-.13-.16-.3-.24-.5-.24-.2 0-.37.08-.5.23S153.71 62.03 153.71 62.35zM156.25 60.84h.89l.76 2.25.74-2.25h.87l-1.12 3.05-.2.55c-.07.18-.14.33-.21.42-.07.1-.14.18-.23.24-.09.06-.19.11-.32.14-.13.03-.27.05-.43.05-.16 0-.32-.02-.47-.05l-.07-.66c.13.03.25.04.36.04.19 0 .34-.06.43-.17s.17-.26.21-.44L156.25 60.84zM161.76 64.01v-4.37h.86l1.79 2.92v-2.92h.82v4.37h-.89l-1.76-2.85v2.85H161.76zM170.11 64.01h-.96l-.38-.99h-1.75l-.36.99h-.94l1.7-4.37h.93L170.11 64.01zM168.48 62.27l-.6-1.62-.59 1.62H168.48zM174.52 64.01h-.96l-.38-.99h-1.75l-.36.99h-.94l1.7-4.37h.93L174.52 64.01zM172.9 62.27l-.6-1.62-.59 1.62H172.9zM177.79 62.4l.86.27c-.13.48-.35.83-.65 1.06-.31.23-.69.35-1.16.35-.58 0-1.06-.2-1.43-.6-.37-.4-.56-.94-.56-1.63 0-.73.19-1.29.56-1.7.38-.4.87-.6 1.48-.6.54 0 .97.16 1.3.47.2.19.35.46.45.81l-.87.21c-.05-.23-.16-.41-.32-.54-.16-.13-.36-.2-.6-.2-.32 0-.59.12-.79.35-.2.23-.3.61-.3 1.13 0 .55.1.95.3 1.18.2.23.46.35.78.35.23 0 .44-.07.61-.22C177.59 62.95 177.72 62.72 177.79 62.4zM182.88 65.29v-5.74h.67v5.74H182.88zM189.87 64.01h-.84v-3.16c-.31.29-.67.5-1.08.64v-.76c.22-.07.46-.21.71-.41.26-.2.43-.43.53-.7h.68V64.01zM193.95 63.23v.78h-2.94c.03-.29.13-.57.29-.84.16-.26.47-.61.94-1.05.38-.35.61-.59.7-.72.12-.17.17-.34.17-.51 0-.19-.05-.33-.15-.43-.1-.1-.24-.15-.42-.15-.18 0-.31.05-.42.16-.1.11-.16.28-.18.53l-.84-.08c.05-.46.21-.79.47-.99.26-.2.59-.3.98-.3.43 0 .77.12 1.02.35.25.23.37.52.37.87 0 .2-.04.38-.11.56-.07.18-.18.36-.34.56-.1.13-.28.32-.55.56s-.43.4-.5.48c-.07.08-.13.16-.17.23H193.95zM194.71 59.63h1.75c.35 0 .6.01.77.04.17.03.32.09.46.18.13.09.25.21.34.37.09.15.13.32.13.51 0 .2-.06.39-.17.56s-.26.3-.45.38c.27.08.47.21.61.4.14.19.21.41.21.66 0 .2-.05.39-.14.58-.09.19-.22.34-.38.45-.16.11-.36.18-.59.21-.15.02-.5.03-1.07.03h-1.49V59.63zM195.59 60.36v1.01h.58c.34 0 .56 0 .64-.01.15-.02.27-.07.36-.16.09-.09.13-.2.13-.34 0-.14-.04-.25-.11-.33-.07-.08-.19-.14-.33-.15-.09-.01-.34-.01-.75-.01H195.59zM195.59 62.1v1.17h.82c.32 0 .52-.01.61-.03.13-.02.24-.08.32-.17.08-.09.12-.22.12-.37 0-.13-.03-.24-.1-.33-.06-.09-.16-.16-.28-.2-.12-.04-.38-.06-.78-.06H195.59zM200.59 62.58l.86-.08c.05.29.16.5.31.64.16.14.37.2.64.2.28 0 .5-.06.64-.18.14-.12.22-.26.22-.42 0-.1-.03-.19-.09-.26-.06-.07-.17-.14-.32-.19-.1-.04-.34-.1-.71-.19-.47-.12-.81-.26-1-.43-.27-.24-.4-.53-.4-.88 0-.22.06-.43.19-.63.13-.19.31-.34.55-.44.24-.1.52-.15.86-.15.55 0 .96.12 1.24.36.28.24.42.56.44.96l-.88.04c-.04-.22-.12-.39-.24-.49-.12-.1-.31-.15-.56-.15-.26 0-.46.05-.6.16-.09.07-.14.16-.14.27 0 .1.04.19.13.27.11.09.38.19.81.29.43.1.75.21.95.31.21.11.37.26.48.44.12.19.17.42.17.7 0 .25-.07.49-.21.7-.14.22-.34.38-.59.49-.25.11-.57.16-.95.16-.55 0-.98-.13-1.27-.38C200.83 63.44 200.65 63.07 200.59 62.58zM206.34 60.84v.67h-.57v1.28c0 .26.01.41.02.45.01.04.04.08.07.11.04.03.09.04.14.04.08 0 .19-.03.34-.08l.07.65c-.19.08-.42.13-.66.13-.15 0-.29-.03-.41-.08-.12-.05-.21-.12-.27-.2-.06-.08-.1-.19-.12-.33-.02-.1-.03-.29-.03-.59V61.5h-.39v-.67h.39v-.63l.84-.49v1.12H206.34zM207.55 61.8l-.76-.14c.09-.31.23-.53.44-.68.21-.15.52-.22.93-.22.37 0 .65.04.84.13.18.09.31.2.39.34.07.14.11.39.11.75l-.01.98c0 .28.01.48.04.62.03.13.08.27.15.43h-.83c-.02-.06-.05-.14-.08-.25-.01-.05-.02-.08-.03-.1-.14.14-.3.24-.46.31-.16.07-.34.1-.52.1-.33 0-.58-.09-.77-.27s-.28-.4-.28-.67c0-.18.04-.34.13-.48.09-.14.21-.25.36-.32s.38-.14.67-.2c.39-.07.66-.14.81-.21v-.08c0-.16-.04-.28-.12-.34-.08-.07-.23-.1-.45-.1-.15 0-.27.03-.35.09C207.67 61.55 207.6 61.66 207.55 61.8zM208.67 62.48c-.11.04-.28.08-.51.13-.23.05-.39.1-.46.15-.11.08-.16.18-.16.3 0 .12.04.22.13.3.09.09.2.13.33.13.15 0 .3-.05.43-.15.1-.08.17-.17.2-.28.02-.07.03-.21.03-.41V62.48zM211.77 60.84v.67h-.57v1.28c0 .26.01.41.02.45.01.04.04.08.07.11.04.03.09.04.14.04.08 0 .19-.03.34-.08l.07.65c-.19.08-.42.13-.66.13-.15 0-.29-.03-.41-.08-.12-.05-.21-.12-.27-.2s-.1-.19-.12-.33c-.02-.1-.03-.29-.03-.59V61.5h-.38v-.67h.38v-.63l.84-.49v1.12H211.77zM214.44 64.01v-.47c-.12.17-.27.3-.46.4-.19.1-.39.15-.6.15-.21 0-.4-.05-.57-.14-.17-.09-.29-.22-.37-.39-.08-.17-.11-.4-.11-.7v-2.01h.84v1.46c0 .45.02.72.05.82.03.1.09.18.17.24.08.06.19.09.31.09.14 0 .27-.04.38-.12.11-.08.19-.18.23-.29.04-.12.06-.4.06-.85v-1.34h.84v3.17H214.44zM215.79 63.1l.84-.13c.04.16.11.29.22.37.11.08.26.13.46.13.22 0 .38-.04.49-.12.07-.06.11-.13.11-.22 0-.06-.02-.12-.06-.16-.04-.04-.14-.08-.28-.11-.68-.15-1.11-.29-1.29-.41-.25-.17-.38-.41-.38-.71 0-.27.11-.51.33-.69.22-.19.55-.28 1.01-.28.43 0 .76.07.97.21.21.14.36.35.44.63l-.79.15c-.03-.12-.1-.22-.19-.28s-.23-.1-.4-.1c-.22 0-.38.03-.47.09-.06.04-.1.1-.1.17 0 .06.03.11.08.15.08.06.34.13.78.24.45.1.76.23.94.37.18.15.26.36.26.62 0 .29-.12.54-.36.75s-.6.31-1.08.31c-.43 0-.77-.09-1.03-.26C216.04 63.64 215.87 63.4 215.79 63.1zM221.15 64.01v-4.37h.84v1.58c.26-.29.57-.44.92-.44.39 0 .71.14.96.42.25.28.38.68.38 1.2 0 .54-.13.96-.39 1.25-.26.29-.57.44-.94.44-.18 0-.36-.05-.54-.14-.18-.09-.33-.22-.46-.4v.47H221.15zM221.98 62.35c0 .33.05.57.16.73.15.22.34.33.58.33.19 0 .34-.08.47-.24.13-.16.2-.41.2-.75 0-.36-.07-.62-.2-.78-.13-.16-.3-.24-.5-.24-.2 0-.37.08-.5.23S221.98 62.03 221.98 62.35zM224.52 60.84h.89l.76 2.25.74-2.25h.87l-1.12 3.05-.2.55c-.07.18-.14.33-.21.42-.07.1-.14.18-.23.24-.09.06-.19.11-.32.14-.13.03-.27.05-.43.05-.16 0-.32-.02-.47-.05l-.07-.66c.13.03.25.04.36.04.2 0 .34-.06.43-.17.09-.11.17-.26.21-.44L224.52 60.84zM230.02 59.63h.88V62c0 .38.01.62.03.73.04.18.13.32.27.43.14.11.34.16.58.16.25 0 .44-.05.57-.15.13-.1.2-.23.23-.38.03-.15.04-.4.04-.74v-2.42h.88v2.3c0 .53-.02.9-.07 1.11-.05.22-.14.4-.26.55-.13.15-.3.27-.51.36-.21.09-.5.13-.84.13-.42 0-.73-.05-.95-.14-.22-.1-.39-.22-.51-.38-.13-.15-.21-.32-.25-.49-.06-.25-.09-.62-.09-1.11V59.63zM236.47 62.4v-.74h1.9v1.74c-.19.18-.45.34-.8.47-.35.14-.71.2-1.07.2-.46 0-.86-.1-1.2-.29-.34-.19-.6-.47-.77-.82-.17-.36-.26-.75-.26-1.17 0-.46.1-.86.29-1.21.19-.35.47-.63.84-.81.28-.15.63-.22 1.05-.22.54 0 .97.11 1.27.34.31.23.5.54.59.94l-.88.16c-.06-.21-.18-.38-.35-.51-.17-.12-.38-.19-.64-.19-.39 0-.69.12-.92.37-.23.24-.34.61-.34 1.09 0 .52.12.91.35 1.17.23.26.53.39.91.39.18 0 .37-.04.56-.11.19-.07.35-.16.48-.26V62.4H236.47zM241.99 62.4l.86.27c-.13.48-.35.83-.66 1.06-.31.23-.69.35-1.16.35-.58 0-1.06-.2-1.43-.6-.37-.4-.56-.94-.56-1.63 0-.73.19-1.29.56-1.7.38-.4.87-.6 1.48-.6.54 0 .97.16 1.3.47.2.19.35.46.45.81l-.87.21c-.05-.23-.16-.41-.32-.54-.16-.13-.36-.2-.6-.2-.32 0-.59.12-.79.35-.2.23-.3.61-.3 1.13 0 .55.1.95.3 1.18.2.23.46.35.78.35.23 0 .44-.07.61-.22S241.92 62.72 241.99 62.4zM247.08 65.29v-5.74h.67v5.74H247.08zM255.83 64.01h-.96l-.38-.99h-1.75l-.36.99h-.94l1.7-4.37h.93L255.83 64.01zM254.2 62.27l-.6-1.62-.59 1.62H254.2zM256.26 60.84h.78v.47c.1-.16.24-.29.41-.39s.37-.15.58-.15c.37 0 .68.14.94.43.26.29.38.69.38 1.21 0 .53-.13.94-.39 1.23-.26.29-.57.44-.94.44-.18 0-.33-.03-.48-.1-.14-.07-.29-.19-.45-.36v1.6h-.84V60.84zM257.09 62.37c0 .36.07.62.21.79.14.17.31.26.52.26.2 0 .36-.08.49-.23.13-.16.19-.41.19-.77 0-.33-.07-.58-.2-.74-.13-.16-.3-.24-.5-.24-.2 0-.38.08-.51.24C257.16 61.82 257.09 62.06 257.09 62.37zM260 60.84h.78v.47c.1-.16.24-.29.41-.39s.37-.15.58-.15c.37 0 .68.14.94.43.26.29.38.69.38 1.21 0 .53-.13.94-.39 1.23-.26.29-.57.44-.94.44-.18 0-.33-.03-.48-.1-.14-.07-.29-.19-.45-.36v1.6H260V60.84zM260.83 62.37c0 .36.07.62.21.79.14.17.31.26.52.26.2 0 .36-.08.49-.23.13-.16.19-.41.19-.77 0-.33-.07-.58-.2-.74-.13-.16-.3-.24-.5-.24-.2 0-.38.08-.51.24C260.89 61.82 260.83 62.06 260.83 62.37zM264.56 64.01h-.84v-3.17h.78v.45c.13-.21.25-.35.36-.42.11-.07.23-.1.36-.1.19 0 .38.05.55.16l-.26.73c-.14-.09-.27-.14-.39-.14-.12 0-.22.03-.3.1-.08.06-.15.18-.19.35-.05.17-.07.52-.07 1.06V64.01zM265.94 62.38c0-.28.07-.55.21-.81.14-.26.33-.46.58-.6.25-.14.53-.21.84-.21.48 0 .87.16 1.18.47.31.31.46.7.46 1.18 0 .48-.15.88-.46 1.19-.31.32-.7.47-1.17.47-.29 0-.57-.07-.83-.2-.26-.13-.46-.32-.6-.58C266.01 63.05 265.94 62.74 265.94 62.38zM266.8 62.42c0 .31.07.56.22.72.15.17.33.25.55.25.22 0 .4-.08.55-.25.15-.17.22-.41.22-.73 0-.31-.07-.55-.22-.72-.15-.17-.33-.25-.55-.25-.22 0-.4.08-.55.25S266.8 62.11 266.8 62.42zM270.74 64.01l-1.28-3.17h.88l.6 1.62.17.54c.05-.14.07-.23.09-.27.03-.09.06-.18.09-.27l.6-1.62h.86l-1.26 3.17H270.74zM275.1 63l.84.14c-.11.31-.28.54-.51.7-.23.16-.52.24-.87.24-.55 0-.96-.18-1.22-.54-.21-.29-.31-.65-.31-1.09 0-.53.14-.94.41-1.23.27-.3.62-.45 1.04-.45.47 0 .84.16 1.12.47.27.31.4.79.39 1.43h-2.1c.01.25.07.44.2.58.13.14.29.21.48.21.13 0 .24-.04.33-.11C274.99 63.27 275.06 63.16 275.1 63zM275.15 62.15c-.01-.24-.07-.43-.19-.55-.12-.13-.26-.19-.44-.19-.18 0-.33.07-.45.2-.12.13-.18.31-.18.54H275.15zM279.57 64.01h-.78v-.47c-.13.18-.28.32-.46.4-.18.09-.35.13-.53.13-.36 0-.68-.15-.94-.44-.26-.29-.39-.7-.39-1.23 0-.54.13-.95.38-1.22s.57-.42.96-.42c.35 0 .66.15.92.44v-1.58h.84V64.01zM277.33 62.35c0 .34.05.58.14.73.14.22.32.33.57.33.19 0 .36-.08.49-.25.14-.16.2-.41.2-.74 0-.36-.07-.63-.2-.79-.13-.16-.3-.24-.5-.24-.2 0-.37.08-.5.24C277.4 61.8 277.33 62.04 277.33 62.35zM282.06 64.01v-4.37h.84v1.58c.26-.29.57-.44.92-.44.39 0 .71.14.96.42.25.28.38.68.38 1.2 0 .54-.13.96-.39 1.25-.26.29-.57.44-.94.44-.18 0-.36-.05-.54-.14-.18-.09-.33-.22-.46-.4v.47H282.06zM282.89 62.35c0 .33.05.57.16.73.15.22.34.33.58.33.19 0 .34-.08.47-.24.13-.16.2-.41.2-.75 0-.36-.07-.62-.2-.78-.13-.16-.3-.24-.5-.24-.2 0-.37.08-.5.23S282.89 62.03 282.89 62.35zM285.43 60.84h.89l.76 2.25.74-2.25h.87l-1.12 3.05-.2.55c-.07.18-.14.33-.21.42-.07.1-.14.18-.23.24-.09.06-.19.11-.32.14-.13.03-.27.05-.43.05-.16 0-.32-.02-.47-.05l-.07-.66c.13.03.25.04.36.04.19 0 .34-.06.43-.17.09-.11.17-.26.21-.44L285.43 60.84zM294.65 64.01h-.96l-.38-.99h-1.75l-.36.99h-.94l1.7-4.37h.93L294.65 64.01zM293.02 62.27l-.6-1.62-.59 1.62H293.02zM295.09 64.01v-4.37h.88v4.37H295.09zM299.62 62.4l.86.27c-.13.48-.35.83-.66 1.06-.31.23-.69.35-1.16.35-.58 0-1.06-.2-1.43-.6-.37-.4-.56-.94-.56-1.63 0-.73.19-1.29.56-1.7.38-.4.87-.6 1.48-.6.54 0 .97.16 1.3.47.2.19.35.46.45.81l-.87.21c-.05-.23-.16-.41-.32-.54-.16-.13-.36-.2-.6-.2-.32 0-.59.12-.79.35-.2.23-.3.61-.3 1.13 0 .55.1.95.3 1.18.2.23.46.35.78.35.23 0 .44-.07.61-.22S299.54 62.72 299.62 62.4zM302.22 64.01v-3.63h-1.3v-.74h3.48v.74h-1.3v3.63H302.22zM304.96 64.01v-4.37h3.24v.74h-2.36v.97h2.2v.74h-2.2v1.19h2.44v.74H304.96z" class="colorfff svgShape"/></g><g fill="#981b1b" class="color000 svgShape"><rect width="236.46" height=".31" x="72.91" y="36.31" fill="#f35555" class="colorfff svgShape"/></g><g fill="#981b1b" class="color000 svgShape"><path fill="#f35555" fill-rule="evenodd" d="M57.11 50.68l.79-2.79c-2.18 1.86-4.57 3.49-7.13 4.83l.47.93-.33.17-1.04-.64c-.03.01-.06.03-.08.04l.47.93-.31.15-.47-.94c-.09.04-.18.09-.27.13.02.04.04.08.06.13.1.22.13.41.09.6l1.23 2.64c3.84-1.78 7.36-4.12 10.47-6.92L57.11 50.68zM16.01 54.42c-.07-.07-.11-.15-.13-.23-.02-.08-.02-.16-.01-.23.02-.11.08-.25.16-.44l.08-.18c-.12-.06-.23-.11-.35-.17l-.17.33c-.07.13-.13.23-.19.29-.08.08-.18.12-.29.14-.11.01-.24-.01-.37-.08-.16-.08-.26-.19-.3-.32-.04-.13-.02-.29.07-.46l.33.12c-.04.1-.06.17-.06.22.01.08.04.13.12.17.07.04.14.04.19.02.05-.03.11-.11.18-.24l.18-.35c-2.77-1.4-5.34-3.12-7.68-5.12l.79 2.84-3.96-.79c3.11 2.8 6.63 5.14 10.47 6.92l1.09-2.34C16.09 54.5 16.04 54.46 16.01 54.42z" clip-rule="evenodd" opacity=".7" class="colorfff svgShape"/><path fill="#f35555" fill-rule="evenodd" stroke="#e71d1d" stroke-miterlimit="10" stroke-width=".31" d="M60.65 35.18c.48.89-.01 1.47-.62 2.01.39.89.26 1.4-.93 1.74.06.1.12.2.17.3.24.47.16.9-.25 1.24-.28.24-.62.38-.97.49-.12.04-.24.08-.41.14.09.11.14.22.23.28.27.21.38.52.21.84-.09.17-.23.34-.4.45-.46.3-.97.47-1.52.44-.37-.01-.75-.04-1.15-.06-.55.82-1.07 1.68-1.73 2.49-.2-.29-.37-.55-.54-.81.56-.77 1.12-1.53 1.69-2.31-.5-.26-.87-.62-1.14-1.06-.37-.59-.43-1.23-.27-1.89.12-.49.45-.77.95-.84.05-.01.1-.02.17-.03-.25-.81.18-1.32.75-1.74-.09-.81.02-1.04.7-1.4 0-.14-.02-.3 0-.46.05-.4.21-.77.46-1.08.15-.18.19-.34.12-.58-.11-.35-.11-.72.03-1.08.06-.16.13-.33.25-.44.2-.19.25-.37.21-.65-.04-.31-.02-.64.03-.96.06-.36.23-.65.67-.63.03 0 .07-.04.14-.08-.09-.09-.17-.15-.24-.23-.15-.16-.32-.3-.43-.48-.26-.42-.04-.93.44-1.07.25-.07.31-.16.16-.35-.44-.57-.38-1.18-.13-1.8.03-.08.07-.16.11-.23 0-.01 0-.02 0-.06-.59-.44-.79-1.02-.52-1.77-.59-.56-.8-1.24-.55-2.05-.32-.17-.66-.32-.78-.69-.12-.37.05-.69.26-1.02-.68-.34-.85-.93-.84-1.64-.91-.26-.87-.96-.72-1.69-.14-.07-.29-.12-.41-.2-.23-.15-.47-.3-.67-.49-.34-.34-.44-.75-.27-1.21.02-.05.04-.1.06-.16-.12-.05-.23-.09-.33-.14-.24-.14-.5-.26-.72-.43-.35-.27-.55-.63-.51-1.09 0-.04 0-.08-.01-.14-.1-.04-.2-.07-.3-.12-.22-.12-.44-.22-.64-.37-.36-.28-.48-.67-.39-1.12.01-.06.03-.13.04-.19 0-.01-.01-.02-.02-.05-.19-.04-.39-.08-.58-.13-.27-.08-.53-.17-.79-.27-.38-.16-.64-.45-.82-.83-.32-.7.03-1.26.79-1.3.3-.01.58.08.81.25.27.21.52.45.77.68.08.07.14.16.23.27.03-.12.06-.2.08-.29.12-.49.87-.7 1.21-.24.14.19.27.39.35.61.12.3.18.62.27.92.03.1.05.2.09.36.12-.08.21-.12.28-.19.26-.29.55-.35.88-.13.16.1.31.24.41.4.15.24.27.51.39.77.04.11.1.18.2.16.38-.06.57.2.73.47.17.29.2.61.23.93.01.07.01.15.02.25.1-.05.18-.09.27-.13.34-.16.64-.09.84.23.09.14.17.31.19.47.06.48.08.96.12 1.44.01.07.02.14.03.22.07 0 .13.01.18 0 .29-.06.38-.03.53.21.19.31.25.66.31 1.01.02.12.04.23.06.37.09-.03.17-.07.25-.08.16-.03.31-.08.47-.08.59 0 .96.46.83 1.02-.04.17-.15.33-.23.49-.06.11-.12.22-.2.36.11.05.18.09.26.1.34.06.52.28.62.59.11.34.06.68-.06 1.01-.04.11-.09.22-.11.33-.03.17.03.24.2.26.65.05 1.01.48.9 1.12-.05.3-.19.59-.29.88-.04.1-.1.19-.16.31.42.18.75.42.83.9.07.44-.08.82-.24 1.23.09.05.17.09.25.13.35.2.54.51.56.92.03.5-.15.95-.37 1.38-.06.12-.12.24-.21.41.13.03.22.07.31.06.16-.03.24.05.33.15.25.3.28.65.16 1-.08.22-.2.43-.3.64.01.01.01.04.02.05.49.54.46 1.26-.12 1.85-.2.21-.43.38-.65.58C61.99 34.12 61.9 34.48 60.65 35.18zM58.67 24.61c-.22.09-.43.02-.61-.1-.22-.16-.42-.36-.63-.54-.04-.04-.08-.08-.18-.17 0 .2-.02.32 0 .44.06.35.27.6.54.81.18.14.37.26.56.37.08.05.2.1.25.07.06-.03.09-.16.09-.25.02-.19.01-.38.02-.57.01-.02.02-.04.03-.07C58.72 24.61 58.7 24.61 58.67 24.61zM54.57 42.14c.42-.41.57-.88.52-1.42-.02-.15-.03-.3-.02-.45 0-.55-.31-.87-.79-1.06-.38-.15-.74 0-.85.39-.14.5-.15 1 .15 1.45C53.84 41.46 54.19 41.81 54.57 42.14zM58.67 32.86c.08-.38.14-.68.2-.98.05-.22.04-.42-.05-.63-.24-.55-.56-1.01-1.15-1.23-.24-.09-.34-.06-.51.19-.04.05-.06.12-.08.18-.13.42-.03.83.08 1.23.02.07.12.11.18.16.31.23.63.45.93.68C58.41 32.56 58.51 32.69 58.67 32.86zM57.39 36.83c.04-.07.08-.14.1-.2.13-.35.24-.71.39-1.05.13-.29.05-.52-.12-.74-.25-.32-.59-.53-.95-.69-.2-.08-.32-.04-.44.14-.1.14-.21.28-.27.43-.06.13-.09.29-.08.43.03.26.13.49.32.68.32.3.62.62.93.93C57.29 36.79 57.34 36.8 57.39 36.83zM60.19 29.57c.46-.42.86-.82 1.05-1.36.12-.32.2-.65.27-.99.04-.22.05-.45.02-.67-.04-.29-.33-.41-.55-.22-.28.23-.54.49-.79.75-.06.06-.08.17-.08.26.02.68.04 1.37.07 2.05C60.17 29.42 60.17 29.46 60.19 29.57zM58.19 34.63c.1-.35.18-.65.27-.95.04-.12-.02-.21-.09-.29-.28-.31-.55-.63-.85-.93-.13-.13-.29-.23-.45-.31-.18-.09-.3-.03-.39.15-.04.08-.09.18-.1.27-.04.34-.04.68.06 1 .29.15.57.26.82.42C57.71 34.17 57.92 34.39 58.19 34.63zM59.47 33.44c.11-.05.2-.06.24-.11.15-.2.38-.27.59-.38.4-.22.79-.47 1.12-.8.28-.28.41-.62.44-1 .03-.26-.1-.37-.35-.28-.14.05-.27.13-.39.22-.39.28-.77.57-1.15.86-.06.05-.13.12-.15.19C59.7 32.56 59.59 32.97 59.47 33.44zM59.1 27.86c-.02-.13-.04-.33-.08-.53-.05-.25-.13-.5-.18-.74-.08-.35-.28-.6-.61-.73-.37-.14-.72.09-.7.48.01.24.07.5.18.7.26.44.56.86.85 1.28.01.02.03.03.04.05.09.09.2.13.32.06.11-.06.2-.13.17-.27C59.09 28.08 59.1 28.01 59.1 27.86zM58.98 34.95c.1.03.17.07.24.08.71.04 1.33-.21 1.87-.65.27-.22.26-.52.04-.84-.17-.25-.42-.32-.74-.18-.12.05-.24.1-.34.19-.29.25-.57.51-.86.78-.03.03-.04.07-.05.11C59.09 34.59 59.04 34.75 58.98 34.95zM56.34 38.83c.2-.02.26-.1.31-.22.07-.19.16-.37.24-.56.03-.08.07-.16.08-.24.09-.7-.52-1.57-1.22-1.73-.19-.04-.3.01-.38.15-.14.26-.08.6.14.81.42.42.7.91.76 1.52C56.27 38.65 56.31 38.73 56.34 38.83zM54.95 37.38c-.64.36-.69.92-.16 1.41.36.32.61.71.71 1.2.03.16.09.33.15.55.07-.15.14-.24.14-.33.01-.59.05-1.18 0-1.77C55.76 37.93 55.45 37.55 54.95 37.38zM55.27 42.62c.48.07.91.04 1.33-.03.21-.03.42-.08.62-.16.29-.11.41-.31.39-.57-.02-.24-.19-.44-.46-.52-.39-.12-.76 0-1.13.14-.05.02-.08.07-.11.11C55.71 41.92 55.51 42.25 55.27 42.62zM58.12 37.32c.02.02.04.04.06.06.49-.19.98-.37 1.46-.58.32-.14.58-.37.75-.68.14-.25.05-.51-.22-.61-.1-.04-.23-.02-.34 0-.56.11-.9.55-1.33.86-.02.01-.02.03-.03.05C58.35 36.72 58.23 37.02 58.12 37.32zM56.35 40.91c.2-.03.34-.04.47-.08.45-.13.91-.25 1.35-.4.25-.09.47-.25.63-.49.19-.29.11-.51-.22-.57-.33-.07-.66-.09-.96.12-.18.12-.37.22-.55.34-.07.05-.15.1-.19.17C56.71 40.28 56.55 40.57 56.35 40.91zM59 22.14c.02.01.05.02.07.04.03-.04.06-.09.09-.13.44-.6.59-1.28.55-2-.01-.11-.05-.23-.11-.33-.16-.3-.37-.32-.62-.09-.28.26-.36.62-.46.97-.01.04 0 .09.01.13C58.69 21.19 58.84 21.66 59 22.14zM50.32 10.36c.15-.21.16-.22.06-.37-.23-.37-.49-.7-.83-.97-.22-.18-.46-.31-.75-.35-.34-.04-.55.17-.53.51.01.18.07.35.22.45.23.16.47.34.73.44C49.57 10.21 49.96 10.27 50.32 10.36zM59.53 24.09c.44-.3.84-.77.99-1.2.07-.21.09-.44.11-.66.02-.15-.06-.26-.2-.34-.36-.21-.66-.11-.83.28-.1.21-.22.41-.33.62-.03.06-.05.14-.04.21C59.33 23.36 59.43 23.71 59.53 24.09zM60.02 26.56c.23-.26.43-.46.61-.68.22-.27.39-.57.43-.92.02-.18.02-.4-.05-.56-.17-.41-.52-.44-.79-.08-.15.21-.28.43-.4.65-.04.07-.04.18-.02.27C59.86 25.65 59.93 26.06 60.02 26.56zM58.58 23.65c-.06-.21-.11-.43-.19-.64-.23-.66-.77-.94-1.39-1.11-.29-.08-.48.15-.39.43.11.35.34.64.61.89.06.05.15.08.23.09C57.85 23.36 58.21 23.46 58.58 23.65zM59.02 30.55c.04-.07.06-.08.06-.1.01-.09.01-.17.02-.26.09-.51-.12-.91-.46-1.26-.19-.19-.38-.38-.59-.55-.11-.1-.25-.17-.38-.24-.14-.08-.27-.03-.38.07-.11.1-.11.24-.03.35.1.15.21.3.33.43.34.37.69.73 1.03 1.1C58.75 30.23 58.87 30.38 59.02 30.55zM57.4 38.98c.62-.14 1.2-.23 1.73-.48.24-.11.46-.28.59-.53.07-.13.09-.27 0-.4-.09-.13-.23-.07-.35-.06-.01 0-.02 0-.03.01-.54.12-1.02.38-1.5.64-.05.03-.1.08-.13.14C57.61 38.5 57.52 38.72 57.4 38.98zM53.93 12.95c.14-.41.2-.8.1-1.19-.09-.33-.27-.63-.54-.86-.17-.15-.3-.14-.41.01-.2.27-.26.58-.23.91 0 .04.03.08.06.11C53.24 12.27 53.57 12.6 53.93 12.95zM57.99 21.78c-.14-.38-.25-.7-.38-1.01-.19-.5-.93-.76-1.4-.51-.24.12-.29.3-.11.49.16.17.36.31.56.42.36.19.73.35 1.1.52C57.81 21.71 57.86 21.73 57.99 21.78zM58.21 19.93c.1-.15.17-.25.23-.36.22-.38.41-.78.67-1.13.15-.2.16-.39.11-.6-.06-.24-.23-.32-.47-.25-.28.09-.44.29-.54.56-.16.45-.18.92-.14 1.4C58.07 19.66 58.14 19.76 58.21 19.93zM57.15 19.63c-.1-.24-.19-.45-.29-.66-.24-.53-.26-.54-.83-.54-.07 0-.15 0-.22.01-.34.03-.42.18-.27.5C55.81 19.52 56.42 19.8 57.15 19.63zM54.12 14.66c-.22.02-.43.03-.64.05-.19.02-.25.1-.19.28.03.09.07.18.12.26.33.5.81.79 1.4.86.13.02.26-.02.43-.03C54.84 15.58 54.48 15.12 54.12 14.66zM55.58 16.53c-.12.07-.21.13-.31.17-.1.03-.21.04-.31.06-.27.05-.39.23-.29.49.13.35.36.61.76.64.28.02.57.01.88-.09C56.06 17.36 55.82 16.94 55.58 16.53zM56.47 16.34c.04-.15.11-.28.1-.41-.02-.6-.05-1.2-.08-1.8-.01-.11-.05-.23-.1-.34-.08-.17-.22-.17-.31-.01-.03.05-.06.12-.07.18-.04.32-.09.64-.11.96C55.87 15.47 56.04 15.94 56.47 16.34zM60.08 30.97c.11-.08.22-.14.28-.23.09-.14.21-.24.36-.3.21-.09.42-.16.63-.24.07-.03.15-.05.19-.1.13-.19.26-.39.37-.6.06-.11.08-.26-.03-.36-.12-.11-.28-.13-.42-.04-.16.11-.32.25-.45.4-.28.32-.54.67-.82.99C60.07 30.62 60.03 30.76 60.08 30.97zM52.35 12.51c-.13.07-.21.11-.29.16-.18.1-.23.2-.16.39.04.11.1.22.18.29.18.15.37.28.56.42.19.13.4.24.59.38.16.11.26.08.3-.1.01-.07-.01-.17-.06-.23C53.1 13.38 52.73 12.96 52.35 12.51zM57.48 18.37c.03 0 .05 0 .08 0 .08-.2.18-.39.22-.59.11-.56-.12-1.07-.33-1.58-.02-.05-.14-.12-.17-.11-.06.03-.13.11-.14.18-.03.31-.06.62-.06.93 0 .18.03.36.09.53C57.26 17.95 57.38 18.16 57.48 18.37zM50.92 9.97c.35.35.7.69 1.06 1.04.02-.01.04-.02.07-.03 0-.11.01-.23 0-.34-.05-.47-.22-.89-.45-1.29-.08-.14-.2-.23-.36-.21-.18.02-.19.17-.21.31C50.99 9.61 50.96 9.77 50.92 9.97zM55.16 14.55c.19-.68-.04-1.94-.41-2.27-.13.1-.14.25-.15.39-.02.29-.06.57-.08.86 0 .08.01.17.05.24C54.75 14.02 54.94 14.26 55.16 14.55zM51.86 12.05c-.41-.43-.83-.8-1.3-1.17C50.41 11.64 51.11 12.27 51.86 12.05zM11.71 38.67c.04.02.06.04.08.04.65.06 1.03.49 1.1 1.17.11 1.06-.33 1.85-1.17 2.45-.09.06-.18.11-.3.19.56.77 1.11 1.52 1.68 2.29-.16.25-.33.51-.53.8-.68-.78-1.18-1.65-1.75-2.48-.36.02-.73.05-1.09.07-.53.03-1.02-.13-1.48-.38-.15-.08-.28-.2-.39-.33-.14-.16-.2-.35-.18-.57.02-.21.07-.4.31-.48.07-.03.11-.14.19-.24-.12-.05-.21-.08-.29-.11-.29-.12-.59-.22-.85-.37-.67-.4-.79-.91-.38-1.57.02-.04.04-.07.07-.13-.09-.03-.16-.05-.23-.08-.17-.07-.34-.13-.5-.22-.35-.22-.47-.54-.37-.94.04-.15.1-.3.18-.52-.06-.04-.16-.09-.22-.17-.17-.19-.34-.39-.47-.61-.21-.37-.18-.64.05-1.2-1.25-.75-1.36-1.18-.56-2.29-.08-.06-.17-.12-.24-.2-.21-.21-.45-.4-.63-.64-.36-.49-.34-.99.01-1.49.04-.05.07-.1.1-.14-.11-.22-.22-.41-.3-.62-.13-.34-.11-.68.12-.98.09-.13.19-.22.38-.19.08.01.16-.03.29-.05-.07-.14-.11-.24-.16-.34-.18-.34-.34-.7-.39-1.08-.09-.58.07-1.13.73-1.38.02-.01.03-.03.05-.04-.07-.24-.16-.47-.2-.71-.13-.68.08-1.07.71-1.37.03-.01.05-.04.1-.07-.05-.09-.1-.18-.14-.28-.11-.31-.25-.62-.31-.94C4.61 21.85 5 21.4 5.6 21.36c.18-.01.25-.08.21-.27C5.79 21 5.76 20.91 5.72 20.82c-.11-.24-.14-.49-.13-.75.02-.49.23-.76.72-.89.19-.05.22-.13.12-.31-.04-.07-.09-.12-.13-.19-.07-.13-.15-.26-.19-.4-.18-.64.32-1.19.99-1.07.18.03.35.1.54.16.05-.24.08-.48.14-.71C7.83 16.43 7.9 16.21 8 16.01c.13-.27.24-.3.54-.25.05.01.1 0 .19 0 0-.1.01-.19.01-.29.04-.46.07-.92.12-1.38C8.88 14 8.91 13.9 8.96 13.8c.23-.49.57-.6 1.04-.34.04.02.09.05.14.07.03-.24.03-.47.09-.68.07-.23.16-.47.29-.67.12-.2.3-.34.56-.29.13.02.2-.04.26-.18.13-.3.29-.6.47-.87.13-.2.33-.34.57-.39.24-.05.45-.01.6.2.07.1.14.2.32.16.02-.09.05-.2.08-.31.09-.31.16-.62.27-.92.08-.21.21-.4.34-.58.17-.23.41-.31.69-.24.27.06.46.22.53.5.02.08.04.16.07.27.08-.1.15-.17.22-.25.27-.32.57-.61.95-.8.38-.19.76-.21 1.14-.01.36.19.51.49.4.88-.13.46-.38.83-.83 1.06-.41.21-.84.32-1.28.41-.06.01-.12.03-.19.04.01.08.02.14.03.2.13.51-.04.91-.45 1.21-.19.14-.41.23-.62.34-.07.04-.16.06-.24.1.08.77-.36 1.2-.96 1.52-.18.09-.37.17-.58.26.02.07.04.13.06.2.15.44.04.83-.26 1.16-.24.27-.55.45-.87.6-.08.03-.15.08-.22.11.11 1.19.03 1.37-.75 1.71.01.66-.14 1.27-.83 1.62.17.32.37.63.26 1-.11.38-.44.54-.77.69.08.38.14.74.04 1.12-.1.37-.32.67-.6.94.26.73.1 1.32-.53 1.78.03.08.07.16.09.24.07.26.17.51.21.77.06.39-.06.74-.3 1.06-.16.21-.12.29.12.37.57.18.75.72.4 1.19-.11.14-.26.26-.39.39-.06.06-.13.13-.23.23.11.03.16.05.2.05.31-.02.47.17.57.43.17.4.12.82.09 1.24-.01.1-.03.19-.04.27.02.03.02.05.04.07.54.47.66 1.06.51 1.73-.05.24-.04.41.12.61.35.44.52.96.47 1.55.27.12.52.26.65.54.12.27.09.54.03.83C11.51 37.38 11.96 37.86 11.71 38.67zM7.14 24.71c-.01-.01-.03-.03-.04-.04 0 .03 0 .06-.01.08.01.17.03.34.04.5.01.13-.04.28.16.38.28-.19.58-.37.85-.6.15-.13.27-.31.36-.48.1-.19.15-.4.03-.62-.21.19-.4.39-.61.56C7.7 24.69 7.44 24.78 7.14 24.71zM7.91 21.83c.49-.23.99-.44 1.48-.68.15-.07.27-.21.38-.34.13-.16.09-.3-.08-.41-.08-.05-.17-.1-.26-.11-.27-.03-.54-.02-.79.11-.12.06-.27.14-.32.25-.16.38-.29.78-.42 1.17-.01.01-.02.02-.03.03 0 0 .01.01.02.02C7.89 21.85 7.9 21.84 7.91 21.83zM11.26 42.24c.41-.38.83-.75 1.08-1.26.22-.43.21-.9.04-1.35-.12-.32-.43-.46-.76-.36-.51.14-.83.54-.86 1.07-.01.19 0 .39-.02.58C10.69 41.44 10.9 41.85 11.26 42.24zM7.14 32.9c.06-.03.1-.03.12-.05.26-.35.6-.62.98-.82.37-.2.51-.48.54-.86.01-.11.03-.22.02-.32-.02-.18-.05-.36-.12-.53-.12-.27-.28-.32-.55-.21-.67.27-1.01.83-1.21 1.49-.01.03-.01.06 0 .1C6.99 32.1 7.07 32.49 7.14 32.9zM8.43 36.94c.08-.06.14-.09.18-.13.22-.22.44-.44.65-.66.12-.12.26-.23.35-.37.18-.26.3-.56.17-.88-.09-.2-.22-.39-.35-.57-.08-.11-.2-.17-.34-.11C8.66 34.39 8.26 34.63 8 35.03c-.12.19-.17.38-.07.6.08.17.13.36.2.54C8.23 36.42 8.32 36.67 8.43 36.94zM5.61 29.64c.03-.05.05-.07.05-.09.02-.71.05-1.42.06-2.12 0-.1-.05-.24-.12-.31-.23-.24-.47-.47-.73-.68-.24-.2-.51-.1-.58.21-.03.12-.04.26-.02.38.07.38.16.75.26 1.13C4.71 28.78 5.16 29.2 5.61 29.64zM9.18 33.66c.1-.29.1-.61.07-.93-.01-.13-.08-.26-.14-.39-.07-.13-.19-.18-.32-.11-.15.08-.31.15-.43.27-.32.33-.63.67-.93 1.02-.04.04-.09.12-.08.17.08.34.16.68.31 1.02.25-.22.45-.45.69-.61C8.6 33.93 8.89 33.81 9.18 33.66zM6.36 33.52c-.12-.46-.23-.88-.35-1.28-.02-.07-.09-.14-.15-.19-.37-.29-.75-.57-1.13-.85-.12-.09-.25-.17-.39-.22-.27-.1-.39-.01-.36.28.03.4.16.77.48 1.02.33.26.67.49 1.02.73.22.15.49.21.67.43C6.18 33.47 6.25 33.48 6.36 33.52zM6.71 27.96c.01 0 .02.01.03.01 0 .1.01.19 0 .29-.01.13.06.22.16.25.09.03.2 0 .3-.02.04-.01.08-.07.11-.11.22-.31.44-.61.64-.92.12-.2.22-.42.3-.64.05-.15.06-.32.05-.47-.01-.23-.13-.34-.35-.4-.19-.05-.37-.03-.52.09-.22.17-.41.37-.44.68-.02.18-.07.36-.11.53C6.82 27.49 6.77 27.72 6.71 27.96zM6.84 35.04c-.08-.35-.15-.66-.46-.85-.09-.05-.14-.16-.22-.24-.24-.25-.51-.46-.85-.56-.26-.08-.46 0-.61.23-.25.37-.2.72.18.97.39.26.81.44 1.27.51C6.38 35.13 6.6 35.14 6.84 35.04zM9.51 38.89c.02-.08.05-.17.06-.26.06-.58.31-1.07.73-1.46.24-.22.26-.45.2-.72-.06-.28-.21-.36-.47-.26-.43.17-.79.44-1 .86-.2.4-.27.81-.03 1.23.08.14.14.29.19.44C9.24 38.85 9.32 38.93 9.51 38.89zM10.18 40.62c.03-.11.04-.14.04-.17.12-.67.41-1.24.95-1.7.36-.31.28-.86-.11-1.18-.12-.09-.22-.11-.35-.04-.37.19-.6.5-.67.89-.11.64-.07 1.28 0 1.92C10.05 40.42 10.11 40.49 10.18 40.62zM10.54 42.69c-.16-.26-.34-.5-.46-.76-.16-.34-.45-.47-.79-.51-.26-.03-.51-.05-.75.08-.42.23-.43.74-.02.98.07.04.15.08.23.1.5.15 1.01.18 1.52.17C10.35 42.75 10.43 42.71 10.54 42.69zM7.73 37.47c-.13-.34-.23-.61-.34-.88-.03-.07-.09-.14-.15-.2-.14-.13-.3-.25-.44-.37-.25-.21-.54-.34-.85-.43-.21-.06-.36.02-.48.16-.13.15-.13.33-.01.48.17.21.34.43.56.56C6.53 37.1 7.1 37.27 7.73 37.47zM6.81 22.3c.18-.55.34-1.04.5-1.54.01-.03.01-.07 0-.09-.1-.31-.16-.64-.4-.9-.29-.32-.56-.28-.74.11C6.15 19.94 6.12 20 6.12 20.07 6.07 20.87 6.25 21.61 6.81 22.3zM9.42 40.99c0-.04.01-.05 0-.06-.4-.84-.51-.95-1.3-1.38-.32-.18-.64-.15-.96-.05-.24.07-.32.26-.18.47.1.15.22.3.37.39C7.98 40.76 8.7 40.88 9.42 40.99zM15.49 10.44c.28-.05.57-.09.85-.17.36-.1.7-.26.99-.51.16-.15.25-.32.24-.54-.01-.31-.23-.51-.53-.44-.22.05-.45.14-.64.26-.41.26-.7.65-.96 1.06C15.35 10.24 15.38 10.34 15.49 10.44zM6.29 24.21c.11-.41.22-.78.31-1.15.01-.05-.02-.12-.05-.17-.11-.22-.23-.43-.34-.65-.14-.28-.32-.39-.58-.34-.32.06-.45.22-.45.56 0 .13.02.26.05.38C5.42 23.4 5.82 23.8 6.29 24.21zM5.81 26.63c.08-.46.15-.85.22-1.24.02-.09.05-.21.01-.28-.17-.29-.34-.57-.55-.83-.18-.22-.38-.18-.57.03-.2.22-.21.49-.15.76C4.91 25.71 5.32 26.17 5.81 26.63zM7.28 23.75c.17-.08.34-.18.52-.23C8 23.46 8.2 23.44 8.4 23.4c.06-.01.13-.04.17-.08.29-.26.53-.56.64-.94.08-.27-.13-.49-.4-.41C7.91 22.26 7.4 22.64 7.28 23.75zM6.77 30.65c.08-.07.11-.1.14-.13.47-.51.95-1.02 1.42-1.53.1-.11.19-.23.25-.37.04-.08.03-.22-.01-.3-.06-.12-.2-.17-.33-.13-.09.03-.19.06-.26.12-.33.29-.67.57-.95.9-.16.18-.26.44-.3.68C6.67 30.13 6.74 30.37 6.77 30.65zM8.39 39.04c-.14-.42-.26-.82-.72-.98-.28-.1-.55-.25-.82-.36-.14-.05-.29-.08-.43-.11-.11-.02-.26-.06-.31.07-.04.11-.04.26 0 .36.05.12.15.25.26.32.22.14.45.28.7.37C7.48 38.88 7.91 38.99 8.39 39.04zM11.91 13c.06-.05.12-.09.17-.14.22-.22.42-.46.66-.65.27-.22.29-.48.2-.77-.03-.09-.05-.19-.09-.27-.15-.32-.35-.35-.59-.1C11.75 11.58 11.62 12.28 11.91 13zM7.62 20.02c.07-.17.14-.26.14-.36.04-.53.02-1.05-.2-1.55-.1-.23-.28-.38-.53-.43-.09-.02-.22 0-.3.05-.18.12-.22.53-.08.7.3.39.56.81.75 1.27C7.45 19.79 7.52 19.87 7.62 20.02zM11.71 14.75c-.36.46-.72.92-1.08 1.38.03.03.04.05.06.05.57.15 1.56-.32 1.85-1.06.09-.21.01-.32-.23-.34C12.11 14.78 11.92 14.77 11.71 14.75zM8.66 19.76c.25 0 .43.01.61 0 .53-.04.86-.35 1.06-.81.11-.25.02-.4-.26-.41-.21-.01-.43-.01-.64.01-.1.01-.25.07-.29.15C8.97 19.02 8.83 19.37 8.66 19.76zM9.49 17.97c.35 0 .63.01.9 0 .44-.02.65-.28.79-.68.08-.23-.05-.38-.29-.44-.21-.05-.42-.12-.66-.19-.09.15-.2.32-.3.49C9.8 17.39 9.67 17.64 9.49 17.97zM9.41 16.45c.16-.27.36-.48.42-.72.15-.58.13-1.17-.04-1.74-.04-.12-.09-.22-.24-.22C9.23 14.15 9.11 15.87 9.41 16.45zM5.75 31.06c.06-.22 0-.36-.12-.5-.27-.31-.52-.63-.78-.94-.1-.12-.21-.24-.33-.34-.08-.06-.19-.11-.29-.13-.27-.04-.41.13-.32.38.06.16.15.3.23.45.1.18.24.27.44.33.35.09.69.21.91.54C5.55 30.94 5.66 30.99 5.75 31.06zM13.48 12.6c-.38.44-.76.87-1.13 1.31-.02.02-.06.06-.05.08.02.1.04.2.09.28.02.02.15-.01.22-.05.19-.11.37-.24.57-.35.27-.15.54-.31.7-.59.15-.26.11-.4-.15-.54C13.66 12.7 13.59 12.66 13.48 12.6zM13.79 11.15c.39-.42.73-.79 1.1-1.2-.02-.1-.05-.29-.08-.48-.02-.11-.05-.22-.17-.24-.13-.02-.27 0-.34.12C13.97 9.88 13.74 10.44 13.79 11.15zM8.33 18.48c.1-.2.19-.36.26-.52.07-.16.15-.32.15-.48.01-.36-.03-.73-.05-1.09-.01-.12-.05-.2-.21-.23-.05.08-.14.16-.17.25C8.21 16.7 8.1 17 8.04 17.3 7.96 17.72 8.04 18.11 8.33 18.48zM11.13 12.3c-.42.41-.64 1.63-.45 2.32.22-.29.43-.56.62-.83.03-.04.02-.12.01-.18-.02-.28-.05-.55-.08-.83C11.21 12.64 11.17 12.5 11.13 12.3zM13.98 12.09c.01.03.02.06.04.1.37.07.7-.05.98-.3.26-.23.37-.53.29-.96C14.82 11.35 14.4 11.72 13.98 12.09z" clip-rule="evenodd" class="colorfff svgShape colorStrokefff svgStroke"/><path fill="#f35555" fill-rule="evenodd" d="M45.57,5.03c0.26,0.17,0.32,0.45,0.37,0.72c0.02,0.13,0.04,0.26,0.03,0.38c-0.02,0.61,0.13,1.19,0.37,1.78    c-0.33,0-0.65,0-0.98,0c-0.08,0.2-0.16,0.39-0.25,0.6c-0.76,0.02-1.53,0.04-2.33,0.06c0.15-0.82,0.37-1.6,0.35-2.42     c0.4-0.25,0.8-0.5,1.19-0.75c0.13-0.09,0.26-0.17,0.39-0.26c0.08-0.05,0.15-0.1,0.23-0.15c0.12,0.02,0.24,0.05,0.36,0.06     C45.39,5.07,45.48,5.04,45.57,5.03z" clip-rule="evenodd" class="colorfff svgShape"/><path fill="#f35555" fill-rule="evenodd" d="M45.57 5.03c-.09.01-.17.04-.26.03C45.19 5.05 45.07 5.02 44.94 5c.04-.29.09-.59.13-.88.05-.4.09-.81-.03-1.21-.04-.14-.09-.28-.26-.37 0 .11 0 .19 0 .28 0 .49.01.98 0 1.47-.01.29-.05.57-.07.86-.13.09-.26.17-.39.26.02-.44.06-.87.06-1.31 0-.43-.03-.85-.06-1.28-.01-.1-.04-.21-.06-.34-.67.11-1.2.41-1.61.92-.06.08-.35.46-.27.71C42.22 4.1 42.01 4.01 41.84 4c.05-.32.12-.69.17-1.01.12-.8.44-1.47 1.18-1.89.46-.26.74-.21 1.06.2.14.18.24.38.37.59.08.01.18.04.29.04.27 0 .44.15.57.36.17.29.25.61.28.95.03.5-.03.98-.15 1.46C45.58 4.82 45.58 4.92 45.57 5.03zM42.76 2.46c.39-.28.81-.45 1.29-.51-.16-.33-.34-.44-.56-.34-.36.16-.65.4-.77.8-.01.03-.02.07-.02.1C42.71 2.49 42.73 2.47 42.76 2.46zM41.45 18.01c-.1-.09-.18-.15-.29-.25.14-.18.28-.37.45-.58.37.28.73.54 1.08.81-.1.16-.42.63-.42.63l-.18-.15c0 0 .1.37.14.5.5 1.55 1 3.1 1.5 4.66.08.24.18.45.35.64.31.34.55.74.73 1.17.36.88-.05 1.56-.78 1.92-.46.22-.96.31-1.46.34-1.21.07-2.37-.12-3.52-.48-.09-.03-.18-.06-.3-.1 0 .37 0 .71 0 1.1.44 0 .87 0 1.32 0 0 .49 0 .95 0 1.43-1.21 0-2.42 0-3.64 0 0-.47 0-.93 0-1.41.41 0 .81 0 1.25 0 0-.53 0-1.03 0-1.55-.21-.12-.45-.24-.68-.37-1.04-.61-1.96-1.36-2.66-2.34-.36-.5-.63-1.04-.72-1.67-.07-.51.27-1.33.9-1.57.48-.18.98-.23 1.48-.24.16 0 .33-.02.46-.09 1.61-.75 3.22-1.52 4.83-2.28C41.34 18.09 41.39 18.05 41.45 18.01zM35.24 24.14c0-.01-.01-.02-.01-.02 0 0-.01 0-.02 0C35.22 24.12 35.23 24.13 35.24 24.14c.02.02.03.05.05.08.02.02.04.05.06.07.04.04.07.07.11.11.03.02.06.05.09.07.02.02.04.04.06.07.03.01.06.02.09.02-.01-.02-.03-.04-.04-.07-.03-.02-.05-.03-.08-.05-.03-.03-.05-.06-.08-.08-.04-.04-.08-.07-.11-.11-.02-.02-.05-.04-.07-.06C35.29 24.18 35.26 24.16 35.24 24.14zM34.92 24.27c0-.01 0-.02-.01-.03 0 0-.01 0-.02-.01C34.9 24.25 34.91 24.26 34.92 24.27c0 .01 0 .02.01.03 0 0 .01 0 .02 0C34.94 24.29 34.93 24.28 34.92 24.27zM36.12 25.39c.02.02.04.04.07.06.02.01.04.01.07.02-.01-.02-.02-.04-.03-.06-.02-.02-.04-.04-.07-.06-.03 0-.05-.01-.08-.01C36.1 25.35 36.11 25.37 36.12 25.39zM35.89 25.17c-.02-.02-.04-.04-.06-.06-.02-.02-.04-.05-.06-.07-.04-.02-.08-.05-.12-.07-.02-.02-.04-.04-.06-.06-.02 0-.04-.01-.06-.01.01.01.02.03.04.04.02.02.04.04.06.06.04.02.08.05.12.07.03.02.05.03.08.05C35.84 25.13 35.86 25.16 35.89 25.17c.01.03.03.06.05.08.02 0 .05.01.07.01-.01-.02-.02-.03-.04-.05C35.94 25.2 35.92 25.19 35.89 25.17zM36.91 25.89c.02.02.05.04.07.06.06.04.11.1.18.13 1.14.65 2.36 1.06 3.65 1.27.65.1 1.3.1 1.96.03-.33-.03-.66-.01-.99-.03-1.58-.13-3.08-.55-4.48-1.29-.09-.05-.19-.09-.29-.13-.03-.02-.05-.03-.08-.05-.05-.04-.1-.08-.15-.12-.02-.01-.04 0-.05.02C36.78 25.81 36.84 25.85 36.91 25.89zM34.6 23.82c0-.01-.01-.02-.01-.02 0 0-.01 0-.02 0C34.58 23.8 34.59 23.81 34.6 23.82c.02.02.03.05.05.07C34.63 23.87 34.61 23.84 34.6 23.82zM36.19 24.55c.02 0 .04 0 .07.01-.01-.01-.02-.03-.03-.04-.03-.03-.07-.05-.1-.08 0 0-.02.02-.02.02C36.13 24.48 36.16 24.51 36.19 24.55zM36.34 24.01c-.01-.01-.03-.03-.04-.04 0 .02.01.05.01.07.02.14.09.19.27.14C36.49 24.11 36.41 24.06 36.34 24.01zM37.88 25.3c0-.01-.01-.02-.01-.03 0 0-.01 0-.02 0C37.86 25.28 37.88 25.29 37.88 25.3c.06.3.12.36.47.39C38.21 25.52 38.07 25.38 37.88 25.3zM37.49 25.31c.01.01.03.02.04.03-.01-.01-.01-.03-.02-.04-.09-.56-.42-.83-.92-.75C36.83 24.89 37.08 25.19 37.49 25.31zM40.67 26.96c.09.01.18.02.27.03 0-.02 0-.04.01-.07-.1-.02-.2-.05-.29-.07-1.77-.44-3.39-1.23-4.91-2.24.06.12.15.2.24.28.63.51 1.32.92 2.06 1.25C38.88 26.52 39.76 26.78 40.67 26.96zM36.87 20.49c0 .02.01.05.01.07 1.19.17 2.32.55 3.41 1.02.25-.45 1.18-3 1.19-3.27C39.93 19.04 38.4 19.76 36.87 20.49zM41.79 18.47c0 0-.81 2.18-1.21 3.24 1 .48 1.93 1.05 2.81 1.74C42.86 21.83 41.79 18.47 41.79 18.47zM39.8 28.51h-3.12v.85h3.12V28.51zM37.17 21.9c-.51-.08-1.01-.16-1.54-.12.06.32.12.6.17.86.48.05.91.1 1.38.15C37.17 22.49 37.17 22.21 37.17 21.9zM42.56 25.55c-.38-.27-.69-.49-1-.71-.33.25-.65.49-.98.74.15.11.28.22.41.32.19.16.42.18.63.1C41.91 25.88 42.19 25.72 42.56 25.55zM37.35 20.94c-.76-.24-1.14-.2-1.78.21.01.1.02.21.04.32.55.05 1.08.09 1.63.14C37.28 21.39 37.31 21.17 37.35 20.94zM38.54 23.12c.09-.29.16-.54.25-.83-.43-.12-.85-.23-1.31-.35-.02.33-.04.6-.05.89C37.8 22.93 38.15 23.02 38.54 23.12zM38.47 23.38c-.34-.08-.66-.17-1.05-.26.05.45.09.84.13 1.23.26.05.49.1.74.15C38.35 24.12 38.4 23.77 38.47 23.38zM40.32 24.12c-.23.31-.44.6-.65.9.23.13.43.25.67.38.32-.23.63-.46.99-.72C40.95 24.48 40.64 24.3 40.32 24.12zM40.46 23.89c.37.2.71.39 1.06.59.18-.19.35-.37.55-.58-.41-.27-.79-.51-1.21-.71C40.72 23.44 40.6 23.65 40.46 23.89zM38.88 22.04c.09-.22.17-.42.26-.64-.52-.15-1-.29-1.52-.44-.04.27-.07.49-.11.72C37.98 21.8 38.41 21.91 38.88 22.04zM35.89 22.91c.08.41.08.41.3.6.26.22.53.44.79.66.07.06.14.15.27.06-.02-.18-.04-.37-.06-.56-.02-.2-.03-.4-.04-.61C36.73 23.01 36.33 22.96 35.89 22.91zM43.4 24.95c-.39-.32-.73-.6-1.1-.9-.19.21-.36.39-.54.59.36.26.68.5 1.03.75C42.97 25.25 43.15 25.12 43.4 24.95zM40.98 22.93c.43.25.84.5 1.27.75.11-.16.21-.31.34-.48-.46-.29-.88-.57-1.34-.86C41.15 22.57 41.06 22.75 40.98 22.93zM36.01 24.12c-.11-.37-.26-.71-.6-.92-.05-.03-.11-.08-.15-.12-.22-.23-.47-.18-.76-.1.31.41.65.72 1 1.03C35.65 24.15 35.81 24.18 36.01 24.12zM39.5 23.78c-.25-.12-.49-.23-.77-.27-.07.37-.17.72-.13 1.1.17.06.33.11.52.17C39.25 24.44 39.37 24.11 39.5 23.78zM39.04 22.38c-.09.3-.16.55-.24.82.28.1.54.2.8.3.1-.27.19-.51.3-.78C39.61 22.61 39.35 22.51 39.04 22.38zM43.59 24.76c.15-.05.17-.14.14-.28-.12-.52-.56-.75-.92-1.09-.12.17-.22.31-.33.46C42.87 24.16 43.23 24.46 43.59 24.76zM38.45 28.18c0-.32-.01-.63 0-.94.01-.18-.07-.28-.23-.32-.08-.02-.16-.05-.25-.08 0 .46 0 .89 0 1.34C38.13 28.18 38.27 28.18 38.45 28.18zM35.35 21.76c-.35.05-.67.1-1.06.16.28.24.5.41.71.6.15.14.31.16.5.09C35.46 22.33 35.41 22.07 35.35 21.76zM40.23 21.84c-.3-.12-.56-.23-.84-.34-.09.23-.16.42-.25.63.3.12.56.22.84.33C40.07 22.26 40.14 22.07 40.23 21.84zM43.58 25.15c-.21.16-.38.29-.57.43.24.22.45.41.68.62.15-.13.28-.24.43-.38C43.93 25.59 43.77 25.38 43.58 25.15zM40.15 22.83c-.1.28-.19.52-.29.79.13.06.23.1.35.16.14-.25.26-.47.4-.71C40.46 22.99 40.33 22.92 40.15 22.83zM41.59 26.33c-.01.03-.02.05-.03.08.1.1.2.22.31.31.05.04.14.07.2.06.29-.05.57-.12.86-.18 0-.03 0-.05 0-.08C42.48 26.45 42.03 26.39 41.59 26.33zM40.48 21.96c-.09.22-.16.41-.24.61.17.08.32.16.49.24.09-.21.17-.39.26-.59C40.83 22.14 40.68 22.06 40.48 21.96zM34.09 21.48c.17-.03 1.07-.43 1.17-.53.03-.03.02-.09.02-.14C34.69 20.82 34.2 21.1 34.09 21.48zM42.76 25.72c-.24.13-.45.25-.65.36.4.09.77.19 1.25.18C43.13 26.06 42.96 25.9 42.76 25.72zM40.77 26.22c-.25-.03-.5-.06-.75-.1-.24-.03-.49-.1-.78-.02C39.76 26.41 40.25 26.44 40.77 26.22zM40.02 25.54c-.22-.12-.38-.21-.56-.3-.13.17-.33.26-.37.48C39.43 25.83 39.69 25.69 40.02 25.54zM39.01 25.03c-.17-.05-.3-.09-.49-.15.06.28-.08.54.19.72C38.92 25.46 38.93 25.25 39.01 25.03zM39.42 24.77c.02.01.04.02.06.03.21-.24.41-.49.57-.8-.12-.04-.2-.07-.3-.11C39.63 24.2 39.53 24.48 39.42 24.77zM43.87 26.83c-.21-.26-.24-.28-.41-.21-.2.08-.4.17-.6.26C43.19 26.92 43.52 26.95 43.87 26.83zM42.18 18.19l.1-.17-.6-.45-.12.16L42.18 18.19zM38.26 24.78c-.21-.05-.4-.09-.59-.13-.01.02-.02.04-.03.06.19.17.39.33.62.53C38.26 25.06 38.26 24.94 38.26 24.78zM34.13 22.14c-.03.02-.06.04-.08.05.08.17.17.35.26.53.15-.03.27-.05.43-.08C34.5 22.45 34.32 22.29 34.13 22.14zM40.76 26.62c.24.06.49.11.76.17C41.26 26.42 41.26 26.42 40.76 26.62zM44.34 25.55c.16-.24.11-.41-.24-.74C44.2 25.09 44.27 25.31 44.34 25.55zM34.77 21.51c.01.02.02.04.02.06.18-.02.35-.05.55-.08-.03-.09-.05-.15-.08-.23C35.09 21.35 34.93 21.43 34.77 21.51zM40.53 25.93c-.23-.26-.25-.26-.45-.06C40.23 25.89 40.37 25.91 40.53 25.93zM44.23 26.09c-.12.11-.2.18-.34.3.2 0 .31 0 .44 0C44.3 26.29 44.27 26.22 44.23 26.09zM44.63 26.16c.01-.14.08-.28-.05-.41C44.36 25.91 44.56 26.03 44.63 26.16zM43.95 25.05c-.04-.04-.07-.07-.09-.1-.02.02-.05.04-.05.06 0 .03.02.06.05.07C43.87 25.09 43.9 25.07 43.95 25.05zM41.1 26.97c0 .02-.01.04-.01.06.07 0 .15 0 .22 0 0-.01 0-.02 0-.04C41.24 26.99 41.17 26.98 41.1 26.97zM43.15 27.34C43.15 27.34 43.15 27.33 43.15 27.34c-.06 0-.12 0-.17 0 0 0 0 0 0 0C43.03 27.34 43.09 27.34 43.15 27.34zM36.4 25.61c.03-.01.04-.02.06-.03-.02-.02-.03-.05-.05-.07-.01-.01-.04.02-.06.03C36.37 25.57 36.38 25.59 36.4 25.61zM36.65 25.69c-.02-.02-.04-.04-.07-.05-.01 0-.03.03-.04.05.02.02.05.03.07.05C36.62 25.74 36.64 25.71 36.65 25.69z" clip-rule="evenodd" class="colorfff svgShape"/><path fill="#f35555" fill-rule="evenodd" d="M40.67 26.96c-.01-.04-.01-.07-.02-.11.1.02.2.05.29.07 0 .02 0 .04-.01.07C40.85 26.98 40.76 26.97 40.67 26.96zM43.95 25.05c-.05.02-.08.04-.09.03-.02-.01-.04-.04-.05-.07 0-.02.03-.04.05-.06C43.88 24.98 43.91 25.01 43.95 25.05zM41.1 26.97c.07.01.14.01.21.02 0 .01 0 .02 0 .04-.07 0-.15 0-.22 0C41.09 27.01 41.1 26.99 41.1 26.97zM36.4 25.61c-.02-.02-.03-.04-.05-.06.02-.01.05-.04.06-.03.02.01.03.04.05.07C36.44 25.6 36.43 25.6 36.4 25.61zM36.65 25.69c-.02.02-.03.05-.04.05-.03-.01-.05-.03-.07-.05.01-.02.04-.05.04-.05C36.61 25.65 36.63 25.67 36.65 25.69zM36.19 24.55c-.03-.03-.06-.07-.08-.1 0 0 .02-.02.02-.02.03.03.07.05.1.08C36.22 24.52 36.2 24.53 36.19 24.55zM35.39 24.25c.04.04.08.07.11.11-.01.02-.02.03-.04.04-.04-.04-.07-.07-.11-.11C35.36 24.28 35.37 24.27 35.39 24.25zM35.74 25.06c-.04-.02-.08-.05-.12-.07.01-.01.02-.02.03-.03.04.02.08.05.12.07C35.76 25.04 35.75 25.05 35.74 25.06zM34.6 23.82c.02.02.03.05.05.07C34.63 23.87 34.61 23.84 34.6 23.82L34.6 23.82zM36.23 25.41c.01.02.02.04.03.06-.02-.01-.05-.01-.07-.02C36.2 25.44 36.22 25.42 36.23 25.41zM35.55 24.93c-.01-.01-.02-.03-.04-.04.02 0 .04.01.06.01C35.57 24.91 35.56 24.92 35.55 24.93zM34.6 23.82c-.01-.01-.02-.02-.03-.03.01 0 .01 0 .02 0C34.59 23.8 34.59 23.81 34.6 23.82L34.6 23.82z" clip-rule="evenodd" class="colorfff svgShape"/><path fill="#f35555" fill-rule="evenodd" d="M35.82 25.11c-.03-.02-.05-.03-.08-.05.01-.01.02-.02.03-.03C35.79 25.06 35.81 25.08 35.82 25.11L35.82 25.11zM35.93 25.25c-.02-.03-.04-.05-.05-.08 0 0 .01-.01.01-.01.03.02.05.03.08.05C35.96 25.23 35.95 25.24 35.93 25.25zM36.72 25.77c.01-.02.03-.03.05-.02C36.75 25.76 36.73 25.77 36.72 25.77zM35.97 25.22c.01.02.02.03.04.05-.02 0-.05-.01-.07-.01C35.95 25.24 35.96 25.23 35.97 25.22zM36.23 24.51c.01.01.02.03.03.04-.02 0-.04 0-.07-.01C36.2 24.53 36.22 24.52 36.23 24.51zM36.12 25.39c-.01-.02-.02-.03-.04-.05.03 0 .05.01.08.01C36.15 25.36 36.14 25.37 36.12 25.39zM35.82 25.11c.02.02.04.04.06.06 0 0-.01.01-.01.01C35.86 25.16 35.84 25.13 35.82 25.11 35.82 25.11 35.82 25.11 35.82 25.11zM34.92 24.27c.01.01.02.02.03.03-.01 0-.02 0-.02 0C34.92 24.29 34.92 24.28 34.92 24.27L34.92 24.27zM35.31 24.2c.02.02.05.04.07.06-.01.01-.02.02-.03.04-.02-.02-.04-.05-.06-.07L35.31 24.2zM34.92 24.27c-.01-.01-.02-.02-.03-.03.01 0 .02 0 .02.01C34.92 24.25 34.92 24.26 34.92 24.27L34.92 24.27zM35.62 24.99c-.02-.02-.04-.04-.06-.06.01-.01.02-.02.03-.03.02.02.04.04.07.06C35.64 24.97 35.63 24.98 35.62 24.99z" clip-rule="evenodd" class="colorfff svgShape"/><path fill="#f35555" fill-rule="evenodd" d="M36.16 25.35c.02.02.04.04.07.06-.01.01-.03.03-.04.04-.02-.02-.04-.04-.07-.06C36.14 25.37 36.15 25.36 36.16 25.35zM35.29 24.22c-.02-.03-.03-.05-.05-.08l0 0c.02.02.05.04.07.05C35.31 24.2 35.29 24.22 35.29 24.22zM35.24 24.14c-.01-.01-.02-.02-.03-.03.01 0 .01 0 .02 0C35.23 24.13 35.24 24.13 35.24 24.14L35.24 24.14zM25.38 24.79c-1.02 0-2.04 0-3.06 0-.41 0-.54-.13-.54-.54 0-1.57 0-3.13 0-4.7 0-.42.14-.56.56-.56 2.03 0 4.06.01 6.09-.01.44 0 .57.22.57.58-.01 1.55-.01 3.09-.01 4.64 0 .06 0 .13 0 .19-.03.26-.16.39-.42.39-.45.01-.9 0-1.35 0C26.6 24.79 25.99 24.79 25.38 24.79zM28.69 24.53c.01-.16.03-.28.03-.4 0-1.48 0-2.96 0-4.44 0-.08 0-.15 0-.23 0-.13-.07-.2-.2-.2-.07 0-.15 0-.23 0-1.94 0-3.89 0-5.83 0-.05 0-.11 0-.16 0-.21.01-.24.04-.25.25 0 .05 0 .11 0 .16 0 1.48 0 2.96 0 4.44 0 .09 0 .17.01.26.01.1.06.16.17.16.06 0 .13 0 .19 0 1.98 0 3.95 0 5.93 0C28.44 24.53 28.55 24.53 28.69 24.53z" clip-rule="evenodd" class="colorfff svgShape"/><path fill="#f35555" d="M1.44 52.21l.36.29c-.04.06-.07.12-.07.17-.01.08.03.15.1.21.05.05.1.07.15.07.05 0 .09-.01.12-.05.03-.03.04-.07.03-.12 0-.05-.05-.13-.12-.23-.13-.18-.2-.33-.21-.45-.01-.12.02-.23.1-.32.05-.06.12-.1.21-.12s.17-.02.27.02c.1.03.21.1.33.21.15.13.24.27.27.39.03.13-.01.26-.1.39l-.36-.29c.04-.06.05-.12.05-.17-.01-.05-.04-.1-.09-.14-.04-.04-.08-.06-.12-.06-.04 0-.07.01-.09.04-.02.02-.02.04-.02.07 0 .03.03.08.08.15.13.18.21.31.25.41.04.1.05.18.03.26-.02.08-.05.15-.11.21-.07.07-.15.13-.25.15-.1.03-.2.02-.3-.01-.1-.03-.21-.1-.33-.21-.2-.18-.3-.34-.31-.49C1.3 52.47 1.35 52.34 1.44 52.21zM3.23 54.13l-.42-.36-.23.15L2.21 53.6l1.47-.82.41.34-.56 1.58-.39-.33L3.23 54.13zM3.38 53.81l.23-.54-.5.32L3.38 53.81zM4.4 53.4l1.16.92-.24.3-.39-.31L4.2 55.24l-.38-.3.73-.93L4.16 53.7 4.4 53.4zM5.68 54.4l.39.29-.33.44.43.31.33-.44.39.29-.93 1.27-.39-.29.38-.51-.43-.31-.38.51-.39-.29L5.68 54.4zM6.97 55.35l.45.3-.03.62L7.94 56l.44.3-1.02.41L7 57.27l-.4-.27.37-.55L6.97 55.35zM8.41 57.87l-.47-.29-.2.18-.42-.26 1.34-1.02.45.28L8.77 58.4l-.43-.27L8.41 57.87zM8.51 57.53l.15-.57-.45.39L8.51 57.53zM9.68 57.11l.79.46c.13.08.21.17.25.27.03.11.02.21-.03.3-.05.08-.11.13-.2.16-.06.02-.12.02-.2.01.08.08.13.16.15.25.01.08-.01.17-.06.26-.04.07-.09.12-.16.16-.07.04-.14.06-.21.06-.05 0-.11-.02-.19-.05-.1-.04-.17-.07-.2-.09l-.73-.42L9.68 57.11zM9.49 58.43l.21.12c.07.04.13.06.18.05.04-.01.08-.03.1-.08.02-.04.03-.08.01-.12-.02-.04-.06-.08-.13-.13l-.21-.12L9.49 58.43zM9.8 57.89L9.98 58c.07.04.12.05.16.05.04-.01.07-.03.1-.08.02-.04.03-.08.02-.12-.01-.04-.05-.07-.11-.11l-.19-.11L9.8 57.89zM11.3 59.53l-.49-.26-.19.19-.44-.23 1.26-1.11.47.25-.22 1.67-.45-.24L11.3 59.53zM11.37 59.18l.11-.58-.42.42L11.37 59.18zM12.5 58.68l.58.28-.19.97.64-.76.58.28-.68 1.42-.36-.17.52-1.08-.8.95-.32-.16.25-1.21-.52 1.08-.36-.17L12.5 58.68zM14.67 61.13l-.51-.22-.17.21-.46-.2 1.17-1.21.49.21-.08 1.68-.47-.2L14.67 61.13zM14.71 60.78l.07-.59-.38.45L14.71 60.78zM16.5 60.46l.45.17-.56 1.47-.45-.17L16.5 60.46zM17.23 60.74l.43.15.27 1.02.29-.82.43.15-.52 1.48-.43-.15-.27-1.01-.29.81-.43-.15L17.23 60.74zM18.5 62.29l.45.11c-.01.07-.01.14.01.18.03.08.09.13.18.15.07.02.12.02.17 0 .05-.02.07-.05.09-.09.01-.04.01-.08-.02-.12-.02-.04-.09-.09-.21-.16-.19-.11-.32-.21-.38-.32-.06-.1-.08-.21-.04-.33.02-.08.07-.14.13-.2.07-.05.15-.09.25-.1.1-.01.23.01.39.06.19.06.33.14.41.24.08.1.1.23.07.4l-.45-.11c.01-.07 0-.13-.03-.17s-.07-.07-.14-.09c-.05-.02-.1-.02-.13 0-.03.01-.06.04-.07.07-.01.02 0 .05.01.07.02.03.06.06.14.1.19.11.32.2.39.27.07.07.12.15.14.23.02.08.02.16-.01.24-.03.1-.08.18-.16.24-.08.06-.17.1-.28.12-.11.01-.24 0-.38-.05-.26-.08-.42-.18-.49-.31C18.48 62.59 18.46 62.45 18.5 62.29zM20.24 61.73l1.42.39-.1.37-.48-.13-.31 1.14-.47-.13.31-1.14-.48-.13L20.24 61.73zM21.84 62.16l.47.12-.37 1.53-.47-.12L21.84 62.16zM22.5 62.33l1.44.31-.08.38-.48-.11-.25 1.16-.47-.1.25-1.16-.48-.11L22.5 62.33zM25.09 62.85l.48.09-.17.92c-.02.09-.05.18-.09.25-.04.08-.1.14-.17.19-.07.05-.14.08-.21.09-.1.02-.21.01-.34-.01-.08-.01-.16-.03-.24-.06-.09-.03-.16-.06-.21-.1-.05-.04-.1-.1-.14-.16-.04-.07-.06-.13-.07-.2-.01-.1-.01-.19 0-.27l.17-.92.48.09L24.4 63.7c-.02.08 0 .15.03.21.04.06.1.09.18.11.08.01.15 0 .21-.04.06-.04.09-.1.11-.19L25.09 62.85zM25.71 62.96l1.46.21-.05.38-.49-.07-.17 1.17-.48-.07.17-1.17-.49-.07L25.71 62.96zM27.33 63.18l1.29.14-.04.33-.81-.09-.03.25.75.08-.03.32-.75-.08-.03.31.83.09-.04.35-1.32-.14L27.33 63.18zM29.43 64.18c.01-.26.1-.45.25-.59.15-.13.35-.2.61-.18.26.01.46.1.59.24.13.15.19.35.18.6-.01.18-.05.33-.12.45-.07.11-.16.2-.28.26-.12.06-.27.08-.44.07-.18-.01-.32-.05-.43-.11s-.2-.16-.27-.28C29.45 64.52 29.42 64.37 29.43 64.18zM29.92 64.21c-.01.16.01.27.07.35.06.07.13.11.23.12.1.01.19-.02.25-.09.06-.06.1-.18.11-.36.01-.15-.02-.26-.07-.33-.06-.07-.13-.11-.24-.12-.1-.01-.18.02-.24.09C29.96 63.94 29.92 64.05 29.92 64.21zM31.3 63.49l1.2.03-.01.34-.71-.01-.01.27.61.01-.01.32-.61-.01-.01.64-.49-.01L31.3 63.49zM33.39 64.57l.46-.04c.01.07.03.13.07.17.05.06.12.09.22.09.07 0 .12-.02.16-.05.04-.03.05-.07.05-.11 0-.04-.02-.08-.06-.11-.04-.03-.12-.06-.25-.08-.21-.04-.37-.1-.46-.18-.09-.08-.14-.18-.15-.3 0-.08.02-.16.06-.23.04-.07.11-.13.21-.18.09-.04.22-.07.38-.07.2-.01.36.03.46.1.11.07.17.19.2.35l-.46.04c-.01-.07-.04-.12-.08-.15-.04-.03-.09-.05-.16-.04-.06 0-.1.01-.13.04-.03.02-.04.05-.04.09 0 .03.01.05.04.07.02.02.08.04.16.05.21.04.37.08.46.13.09.04.16.1.21.17.04.07.07.15.07.23 0 .1-.02.19-.08.28-.05.09-.13.15-.23.2-.1.05-.22.07-.38.08-.27.01-.45-.04-.56-.14C33.47 64.85 33.4 64.72 33.39 64.57zM36.06 64.33l.43.1c-.02.12-.06.22-.12.31-.06.08-.13.15-.22.2-.09.05-.2.07-.34.08-.17.01-.31-.01-.42-.05-.11-.04-.21-.12-.3-.24-.09-.12-.14-.28-.15-.47-.02-.26.04-.46.17-.61.13-.15.32-.23.57-.25.2-.01.36.02.47.09.12.07.21.19.28.35l-.42.12c-.02-.05-.04-.08-.05-.1-.03-.04-.06-.06-.1-.08-.04-.02-.09-.02-.13-.02-.11.01-.19.06-.24.15-.04.07-.06.17-.05.31.01.17.04.29.1.35.06.06.13.09.23.08.09-.01.16-.04.21-.09C36.02 64.51 36.05 64.43 36.06 64.33zM36.63 63.35l.49-.04.14 1.57-.49.04L36.63 63.35zM37.41 63.28l1.29-.15.04.33-.81.09.03.25.75-.09.04.32L38 64.13l.04.31.83-.1.04.35-1.32.15L37.41 63.28zM38.92 63.11l.45-.07.72.77-.13-.86.45-.07.24 1.55L40.2 64.5l-.71-.76.13.85-.45.07L38.92 63.11zM41.86 63.55l.44.05c-.01.12-.03.23-.08.32-.05.09-.11.16-.19.22-.08.06-.19.1-.33.13-.17.03-.31.03-.43.01-.12-.03-.22-.1-.32-.2-.1-.11-.17-.26-.21-.45-.05-.26-.02-.46.09-.63.11-.16.29-.27.54-.32.19-.04.36-.03.48.03.13.06.23.16.32.31l-.4.17c-.02-.04-.05-.08-.07-.09-.03-.03-.07-.05-.11-.07-.04-.01-.09-.01-.14 0-.11.02-.18.08-.22.18-.03.07-.03.18-.01.32.03.17.08.28.15.34.06.05.14.07.24.05.09-.02.16-.06.19-.12C41.84 63.74 41.86 63.65 41.86 63.55zM42.27 62.52l1.27-.29.07.33-.79.18.06.24.74-.17.07.31-.74.17.07.3.82-.19.08.35-1.29.3L42.27 62.52zM45.71 63.01l-.53.15 0 .27-.48.14.14-1.67.51-.14 1 1.35-.49.14L45.71 63.01zM45.52 62.71l-.32-.5-.01.59L45.52 62.71zM46 61.56l.43-.14.83.64L47 61.23l.44-.14.49 1.5-.44.14-.83-.64.27.82-.43.14L46 61.56zM47.67 61.01l.68-.25c.13-.05.25-.07.34-.06.1.01.18.03.26.08.08.05.15.11.2.19.06.08.1.17.14.27.06.16.08.29.08.39 0 .1-.03.19-.07.27-.04.08-.1.15-.16.19-.09.06-.18.11-.26.14l-.68.25L47.67 61.01zM48.25 61.18l.3.81.11-.04c.1-.03.16-.07.19-.11.03-.04.05-.08.05-.15 0-.06-.02-.15-.06-.27-.06-.16-.12-.25-.19-.29-.07-.04-.17-.04-.29.01L48.25 61.18zM49.75 60.22l1.36-.58L51.27 60l-.46.19.46 1.09-.45.19-.46-1.09-.46.19L49.75 60.22zM51.25 59.58l1.18-.55.14.3-.74.34.11.23.69-.32.14.29-.69.32.13.28.76-.35.15.32-1.2.56L51.25 59.58zM53.98 59.29l.44-.08c.03.12.03.23.02.33-.02.1-.06.19-.12.27-.06.08-.16.15-.28.21-.15.08-.29.12-.41.12-.12 0-.24-.03-.37-.11-.13-.08-.23-.2-.32-.37-.12-.23-.15-.44-.09-.63.06-.19.2-.34.43-.45.18-.09.33-.13.47-.11.14.02.27.09.39.21l-.34.28c-.04-.04-.07-.06-.09-.07-.04-.02-.08-.03-.13-.03-.04 0-.09.01-.13.03-.1.05-.15.13-.17.23-.01.08.02.18.08.31.08.16.16.25.23.28.08.03.16.03.24-.02.08-.04.13-.1.15-.17S54.01 59.38 53.98 59.29zM54.08 58.19l.42-.24.27.48.46-.26-.27-.48.43-.24.77 1.37-.43.24-.31-.56-.46.26.31.56-.42.24L54.08 58.19zM55.61 57.33L56 57.09l.96.43-.45-.74.39-.24.82 1.34-.39.24-.95-.43.45.74-.39.24L55.61 57.33zM57.49 57.1c-.14-.21-.19-.42-.15-.62.04-.2.17-.37.38-.51.22-.15.42-.2.62-.16.2.04.36.16.5.37.1.15.16.3.17.43.01.13-.01.26-.07.38-.06.12-.16.23-.31.32-.15.1-.29.16-.41.17-.13.02-.26 0-.38-.07C57.71 57.36 57.59 57.25 57.49 57.1zM57.9 56.83c.09.13.18.21.26.24.09.02.17.01.26-.05.09-.06.14-.13.15-.22.01-.09-.03-.21-.13-.35-.08-.12-.17-.2-.25-.22-.09-.02-.17-.01-.26.05-.08.05-.13.13-.14.22C57.77 56.58 57.81 56.7 57.9 56.83zM58.57 55.42l.39-.28.69.96.62-.44.23.31-1.01.73L58.57 55.42zM60.11 55.29c-.16-.2-.22-.41-.2-.61.03-.2.14-.38.34-.53.21-.16.41-.23.61-.2.2.02.37.14.53.34.11.15.18.28.2.41.02.13.01.26-.04.38-.05.12-.15.24-.29.34-.14.11-.27.18-.4.2-.13.03-.26.01-.39-.04C60.34 55.53 60.22 55.44 60.11 55.29zM60.49 54.99c.1.13.19.2.28.22.09.02.17 0 .25-.06.08-.06.13-.14.13-.23 0-.09-.05-.2-.16-.34-.09-.12-.18-.18-.27-.2-.09-.02-.17 0-.25.07-.08.06-.12.14-.12.23C60.35 54.76 60.39 54.87 60.49 54.99zM62.31 53.82l-.21-.25.58-.48.43.51c-.05.17-.1.3-.16.4-.06.1-.15.2-.27.29-.14.12-.28.19-.41.22-.13.03-.26.01-.39-.04-.13-.06-.25-.15-.35-.27-.11-.13-.18-.27-.21-.41-.03-.14-.01-.28.05-.42.05-.11.14-.22.28-.33.13-.11.24-.18.33-.21.09-.03.17-.04.26-.03.09.01.17.05.26.11l-.31.36c-.05-.03-.11-.05-.16-.04-.06.01-.11.03-.17.08-.08.07-.12.15-.12.25 0 .1.05.21.15.33.11.13.21.2.31.22.1.01.19-.01.28-.09.04-.03.08-.07.1-.12.03-.04.05-.1.08-.17l-.09-.11L62.31 53.82zM62.29 52.53l.4-.36.59.18-.12-.61.4-.36.16 1.09.44.49-.36.33-.44-.49L62.29 52.53z" class="colorfff svgShape"/><g fill="#981b1b" class="color000 svgShape"><polygon fill="#f35555" points="50.59 56.87 50.53 56.74 53.01 54.06 53.58 53.73" class="colorfff svgShape"/></g><g fill="#981b1b" class="color000 svgShape"><polygon fill="#f35555" points="15.06 56.87 15.12 56.74 12.64 54.06 12.07 53.73" class="colorfff svgShape"/></g><g fill="#981b1b" class="color000 svgShape"><path fill="#f35555" d="M20.68 64.91l.7.17c.14.03.25.08.32.14.08.06.13.13.17.21.04.08.06.18.06.27 0 .1-.01.2-.04.31-.04.16-.09.29-.15.37-.06.08-.13.14-.21.19-.08.04-.16.07-.24.07-.11 0-.21-.01-.29-.03l-.7-.17L20.68 64.91zM21.06 65.37l-.21.83.12.03c.1.02.17.03.22.02.05-.01.09-.04.13-.09.04-.05.07-.13.1-.26.04-.16.04-.28 0-.35-.04-.07-.12-.12-.24-.15L21.06 65.37zM22.27 65.3l1.27.27-.07.33-.8-.17-.05.24.74.16-.07.31-.74-.16-.06.3.82.17-.07.35-1.3-.27L22.27 65.3zM23.76 65.61l1.28.23-.06.33-.8-.14-.04.25.74.13-.06.32-.74-.13-.05.31.83.15-.06.35-1.31-.23L23.76 65.61zM25.25 65.87l.63.09.11.98.37-.91L27 66.12l-.22 1.56-.39-.06.17-1.19-.47 1.15-.36-.05-.14-1.23-.17 1.19-.39-.06L25.25 65.87zM27.24 66.14l1.3.13-.03.33-.81-.08-.03.25.75.08-.03.32-.75-.08L27.6 67.4l.83.09-.04.35-1.32-.14L27.24 66.14zM28.76 66.29l.72.05c.14.01.26.04.34.08.08.04.15.11.21.18.05.08.09.16.11.26.02.1.02.2.02.31-.01.17-.04.3-.08.39-.04.09-.1.16-.18.22-.07.06-.15.09-.23.11-.11.02-.21.03-.29.02l-.72-.05L28.76 66.29zM29.22 66.68l-.06.86.12.01c.1.01.17 0 .22-.02.04-.02.08-.06.11-.11.03-.05.05-.14.06-.27.01-.17-.01-.28-.06-.35-.05-.07-.14-.1-.26-.11L29.22 66.68zM32.12 66.46l.48.01-.02.94c0 .09-.02.18-.05.26-.03.08-.08.15-.14.21-.06.06-.13.1-.2.13-.1.03-.21.05-.34.05-.08 0-.16-.01-.25-.02-.09-.01-.17-.04-.23-.07-.06-.03-.11-.08-.16-.14-.05-.06-.08-.12-.1-.18-.03-.1-.04-.19-.04-.27l.02-.94.48.01-.02.96c0 .09.02.15.07.2.05.05.11.07.2.08.08 0 .15-.02.2-.07.05-.05.07-.11.08-.2L32.12 66.46zM32.9 66.47l.45-.01.61.86-.01-.87.46-.01.03 1.57-.46.01-.6-.85.01.86-.46.01L32.9 66.47zM34.69 66.42l.49-.02.07 1.57L34.76 68 34.69 66.42zM35.32 66.4l.51-.03.43 1.1.27-1.15.49-.03-.47 1.61-.53.04L35.32 66.4zM37.12 66.27l1.3-.13.03.33-.81.08.03.25.75-.08.03.32-.75.08.03.31.83-.09.04.35-1.32.13L37.12 66.27zM38.85 67.67l-.21-1.56.8-.11c.15-.02.26-.02.35-.01.08.01.15.05.21.12.06.06.09.14.11.24.01.09 0 .16-.02.23-.03.07-.07.13-.13.17-.04.03-.09.06-.16.08.06.01.1.02.13.04.02.01.05.03.09.07.04.04.07.07.08.09l.29.42-.54.07-.32-.44c-.04-.06-.08-.09-.1-.11-.04-.02-.08-.03-.12-.02l-.04.01.09.63L38.85 67.67zM39.21 66.68l.2-.03c.02 0 .06-.02.12-.04.03-.01.05-.03.07-.06.02-.03.02-.06.02-.09-.01-.05-.03-.09-.06-.11-.04-.02-.1-.03-.19-.02l-.21.03L39.21 66.68zM40.35 66.94l.45-.11c.02.07.05.13.09.16.06.05.14.07.23.06.07-.01.12-.04.15-.07.03-.04.04-.08.04-.12-.01-.04-.03-.07-.07-.1-.04-.03-.13-.04-.26-.05-.22-.01-.38-.05-.48-.11-.1-.06-.17-.16-.19-.28-.01-.08 0-.16.03-.24.03-.08.09-.15.18-.2.09-.06.21-.1.37-.13.2-.03.36-.02.47.03.12.06.2.16.25.32l-.45.1c-.02-.07-.06-.11-.1-.14-.04-.03-.1-.03-.17-.02-.06.01-.1.03-.12.06-.02.03-.03.06-.03.09 0 .02.02.04.05.06.03.02.08.03.17.03.22.01.37.03.47.06.1.03.17.08.23.14.05.06.09.13.1.22.02.1 0 .2-.04.29-.04.09-.11.17-.2.23-.09.06-.21.1-.36.13-.26.04-.45.02-.57-.06C40.47 67.22 40.39 67.1 40.35 66.94zM41.8 65.62l.48-.09.3 1.54-.48.09L41.8 65.62zM42.46 65.5l1.44-.32.08.38-.48.11.25 1.16-.47.1-.25-1.16-.48.11L42.46 65.5zM43.9 65.18l.52-.13.44.44.18-.59.52-.13-.37 1.04.16.64-.47.12-.16-.64L43.9 65.18z" class="colorfff svgShape"/></g><g fill="#981b1b" class="color000 svgShape"><path fill="#f35555" d="M29.94 12.61l.24-.02c.01.1.04.18.08.24.04.06.11.11.2.15.09.04.19.06.3.06.1 0 .19-.01.26-.04.08-.03.13-.07.17-.12.04-.05.06-.11.06-.17 0-.06-.02-.12-.05-.16-.04-.05-.09-.08-.18-.12-.05-.02-.17-.05-.35-.1-.18-.04-.31-.08-.38-.12-.09-.05-.16-.11-.21-.18-.05-.07-.07-.15-.07-.24 0-.1.03-.19.08-.28s.14-.15.25-.2c.11-.04.23-.07.36-.07.15 0 .27.02.38.07.11.05.2.12.26.21.06.09.09.19.1.31l-.25.02c-.01-.12-.06-.22-.14-.28-.08-.06-.19-.09-.34-.09-.16 0-.27.03-.34.09-.07.06-.11.13-.11.21 0 .07.03.13.08.17.05.05.18.09.39.14.21.05.35.09.43.12.11.05.2.12.25.2.05.08.08.17.08.28 0 .1-.03.2-.09.29-.06.09-.15.16-.26.22-.11.05-.24.08-.38.08-.18 0-.33-.03-.45-.08-.12-.05-.21-.13-.28-.23C29.97 12.86 29.94 12.75 29.94 12.61zM31.89 13.24v-1.96h.26v1.96H31.89zM32.52 12.61l.24-.02c.01.1.04.18.08.24.04.06.11.11.2.15.09.04.19.06.3.06.1 0 .19-.01.26-.04.08-.03.13-.07.17-.12.04-.05.06-.11.06-.17 0-.06-.02-.12-.05-.16-.04-.05-.09-.08-.18-.12-.05-.02-.17-.05-.35-.1-.18-.04-.31-.08-.38-.12-.09-.05-.16-.11-.21-.18-.05-.07-.07-.15-.07-.24 0-.1.03-.19.08-.28.06-.09.14-.15.25-.2.11-.04.23-.07.36-.07.15 0 .27.02.38.07.11.05.2.12.26.21.06.09.09.19.1.31l-.25.02c-.01-.12-.06-.22-.14-.28-.08-.06-.19-.09-.34-.09-.16 0-.27.03-.34.09-.07.06-.11.13-.11.21 0 .07.03.13.08.17.05.05.18.09.39.14.21.05.35.09.43.12.11.05.2.12.25.2.05.08.08.17.08.28 0 .1-.03.2-.09.29-.06.09-.15.16-.26.22-.11.05-.24.08-.38.08-.18 0-.33-.03-.45-.08-.12-.05-.21-.13-.28-.23C32.56 12.86 32.52 12.75 32.52 12.61zM34.93 13.24v-1.73h-.64v-.23h1.55v.23h-.65v1.73H34.93z" class="colorfff svgShape"/></g><g fill="#981b1b" class="color000 svgShape"><path fill="#f35555" d="M21.97 28.82h-.46v-.36h.46V28.82zM21.58 28.75h.32v-.22h-.32V28.75zM22.49 28.82h-.46v-.36h.46V28.82zM22.11 28.75h.32v-.22h-.32V28.75zM23.02 28.82h-.46v-.36h.46V28.82zM22.64 28.75h.32v-.22h-.32V28.75zM23.55 28.82H23.1v-.36h.46V28.82zM23.17 28.75h.32v-.22h-.32V28.75zM24.08 28.82h-.46v-.36h.46V28.82zM23.7 28.75h.32v-.22H23.7V28.75zM24.61 28.82h-.46v-.36h.46V28.82zM24.23 28.75h.32v-.22h-.32V28.75zM25.14 28.82h-.46v-.36h.46V28.82zM24.76 28.75h.32v-.22h-.32V28.75zM25.67 28.82h-.46v-.36h.46V28.82zM25.29 28.75h.32v-.22h-.32V28.75zM26.2 28.82h-.46v-.36h.46V28.82zM25.82 28.75h.32v-.22h-.32V28.75zM26.73 28.82h-.46v-.36h.46V28.82zM26.35 28.75h.32v-.22h-.32V28.75zM27.26 28.82h-.46v-.36h.46V28.82zM26.88 28.75h.32v-.22h-.32V28.75z" class="colorfff svgShape"/></g><g fill="#981b1b" class="color000 svgShape"><path fill="#f35555" d="M21.71 29.29h-.46v-.36h.46V29.29zM21.32 29.22h.32V29h-.32V29.22zM22.24 29.29h-.46v-.36h.46V29.29zM21.85 29.22h.32V29h-.32V29.22zM22.77 29.29h-.46v-.36h.46V29.29zM22.38 29.22h.32V29h-.32V29.22zM23.3 29.29h-.46v-.36h.46V29.29zM22.91 29.22h.32V29h-.32V29.22zM23.83 29.29h-.46v-.36h.46V29.29zM23.44 29.22h.32V29h-.32V29.22zM24.36 29.29h-.46v-.36h.46V29.29zM23.97 29.22h.32V29h-.32V29.22zM24.89 29.29h-.46v-.36h.46V29.29zM24.5 29.22h.32V29H24.5V29.22zM25.42 29.29h-.46v-.36h.46V29.29zM25.03 29.22h.32V29h-.32V29.22zM25.95 29.29h-.46v-.36h.46V29.29zM25.56 29.22h.32V29h-.32V29.22zM26.48 29.29h-.46v-.36h.46V29.29zM26.09 29.22h.32V29h-.32V29.22zM27.01 29.29h-.46v-.36h.46V29.29zM26.62 29.22h.32V29h-.32V29.22z" class="colorfff svgShape"/></g><g fill="#981b1b" class="color000 svgShape"><path fill="#f35555" d="M21.46 29.75H21v-.36h.46V29.75zM21.07 29.69h.32v-.22h-.32V29.69zM21.99 29.75h-.46v-.36h.46V29.75zM21.6 29.69h.32v-.22H21.6V29.69zM22.52 29.75h-.46v-.36h.46V29.75zM22.13 29.69h.32v-.22h-.32V29.69zM23.05 29.75h-.46v-.36h.46V29.75zM22.66 29.69h.32v-.22h-.32V29.69zM23.58 29.75h-.46v-.36h.46V29.75zM23.19 29.69h.32v-.22h-.32V29.69zM24.11 29.75h-.46v-.36h.46V29.75zM23.72 29.69h.32v-.22h-.32V29.69zM24.64 29.75h-.46v-.36h.46V29.75zM24.25 29.69h.32v-.22h-.32V29.69zM25.17 29.75h-.46v-.36h.46V29.75zM24.78 29.69h.32v-.22h-.32V29.69zM25.7 29.75h-.46v-.36h.46V29.75zM25.31 29.69h.32v-.22h-.32V29.69zM26.23 29.75h-.46v-.36h.46V29.75zM25.84 29.69h.32v-.22h-.32V29.69zM26.76 29.75H26.3v-.36h.46V29.75zM26.37 29.69h.32v-.22h-.32V29.69zM27.29 29.75h-.46v-.36h.46V29.75zM26.9 29.69h.32v-.22H26.9V29.69z" class="colorfff svgShape"/></g><g fill="#981b1b" class="color000 svgShape"><path fill="#f35555" d="M28.23 28.82h-.46v-.36h.46V28.82zM27.84 28.75h.32v-.22h-.32V28.75zM28.76 28.82H28.3v-.36h.46V28.82zM28.37 28.75h.32v-.22h-.32V28.75zM29.29 28.82h-.46v-.36h.46V28.82zM28.9 28.75h.32v-.22H28.9V28.75z" class="colorfff svgShape"/></g><g fill="#981b1b" class="color000 svgShape"><path fill="#f35555" d="M28.47 29.29h-.46v-.36h.46V29.29zM28.08 29.22h.32v-.22h-.32V29.22zM29 29.29h-.46v-.36H29V29.29zM28.61 29.22h.32v-.22h-.32V29.22zM29.53 29.29h-.46v-.36h.46V29.29zM29.14 29.22h.32v-.22h-.32V29.22z" class="colorfff svgShape"/></g><g fill="#981b1b" class="color000 svgShape"><path fill="#f35555" d="M28.71 29.75h-.46v-.36h.46V29.75zM28.32 29.69h.32v-.22h-.32V29.69zM29.24 29.75h-.46v-.36h.46V29.75zM28.85 29.69h.32v-.22h-.32V29.69zM29.77 29.75h-.46v-.36h.46V29.75zM29.38 29.69h.32v-.22h-.32V29.69z" class="colorfff svgShape"/></g><g fill="#981b1b" class="color000 svgShape"><path fill="#f35555" stroke="#e71d1d" stroke-miterlimit="10" stroke-width=".31" d="M32.83,52.17c-3.78,0-7.53-1.09-10.58-3.07c-2.73-1.77-4.42-4.01-4.42-5.85V12.29h6.66l1.48-1.89H39.7       l1.48,1.89h6.66v30.96c0,1.84-1.69,4.08-4.42,5.85C40.36,51.08,36.6,52.17,32.83,52.17z M18.16,12.62v30.63       c0,1.72,1.64,3.86,4.27,5.57c3,1.95,6.69,3.02,10.4,3.02c3.71,0,7.4-1.07,10.4-3.02c2.63-1.71,4.27-3.84,4.27-5.57V12.62h-6.49       l-1.48-1.89H26.12l-1.48,1.89H18.16z" class="colorfff svgShape colorStrokefff svgStroke"/><rect width=".34" height="19.44" x="32.39" y="13.93" fill="#f35555" stroke="#e71d1d" stroke-miterlimit="10" stroke-width=".31" class="colorfff svgShape colorStrokefff svgStroke"/><path fill="#f35555" stroke="#e71d1d" stroke-miterlimit="10" stroke-width=".31" d="M46.22,42.42l-13.66-8.97l-13.21,8.68l-0.03-0.27c-0.01-0.1-0.02-0.19-0.02-0.28V13.77h27.06v27.81        c0,0.19-0.03,0.39-0.08,0.61L46.22,42.42z M32.56,33.05L46,41.87c0.01-0.1,0.02-0.2,0.02-0.3V14.1H19.63v27.43L32.56,33.05z" class="colorfff svgShape colorStrokefff svgStroke"/><path fill="#f35555" stroke="#e71d1d" stroke-miterlimit="10" stroke-width=".31" d="M32.83,50.22c-3.45,0-7.01-1.2-9.79-3.31c-2.53-1.91-3.58-3.87-3.72-5.06l-0.01-0.1l13.26-8.7l13.74,9.02        l-0.03,0.11c-0.34,1.48-1.71,3.25-3.66,4.73C39.84,49.01,36.27,50.22,32.83,50.22z M19.66,41.92        c0.18,1.09,1.21,2.93,3.58,4.73c2.72,2.06,6.21,3.24,9.59,3.24c3.37,0,6.87-1.18,9.59-3.24c1.84-1.39,3.14-3.04,3.51-4.42        l-13.36-8.77L19.66,41.92z" class="colorfff svgShape colorStrokefff svgStroke"/></g><g fill="#981b1b" class="color000 svgShape"><path fill="#f35555" fill-rule="evenodd" d="M31.88,38.73c-1.65,0.44-2.63,2.14-2.19,3.8c0.44,1.65,2.14,2.63,3.8,2.19c1.65-0.44,2.63-2.14,2.19-3.8        C35.23,39.27,33.53,38.29,31.88,38.73z M33.23,43.75c-1.12,0.3-2.27-0.36-2.57-1.48c-0.3-1.12,0.36-2.27,1.48-2.57        c1.12-0.3,2.27,0.36,2.57,1.48C35.01,42.3,34.35,43.45,33.23,43.75z" clip-rule="evenodd" class="colorfff svgShape"/><path fill="#f35555" fill-rule="evenodd" d="M34.16,41.33c0.22,0.82-0.27,1.66-1.08,1.88c-0.82,0.22-1.66-0.26-1.88-1.08        c-0.22-0.82,0.27-1.66,1.08-1.88C33.1,40.03,33.94,40.51,34.16,41.33z" clip-rule="evenodd" class="colorfff svgShape"/><g fill="#981b1b" class="color000 svgShape"><path fill="#f35555" d="M33.28,46.24l-0.13-0.71c-0.31,0.04-0.62,0.04-0.93,0l-0.13,0.7l-1.16-0.3l0.25-0.68       c-0.28-0.12-0.55-0.28-0.8-0.47L29.9,45.3l-0.85-0.85l0.55-0.46c-0.17-0.24-0.32-0.49-0.43-0.76l-0.67,0.24l-0.32-1.15       l0.71-0.13c-0.04-0.3-0.04-0.6,0-0.89l-0.7-0.13L28.47,40l0.68,0.24c0.12-0.28,0.27-0.54,0.45-0.79l-0.54-0.46l0.83-0.86       l0.47,0.55c0.25-0.19,0.52-0.35,0.81-0.47l-0.24-0.67l1.15-0.32l0.13,0.71c0.31-0.04,0.62-0.04,0.93,0l0.13-0.7l1.16,0.3       l-0.25,0.68c0.28,0.12,0.55,0.28,0.8,0.47l0.47-0.54l0.85,0.85l-0.56,0.46c0.17,0.24,0.32,0.49,0.43,0.76l0.67-0.24l0.32,1.15       l-0.71,0.13c0.04,0.3,0.04,0.6,0,0.89l0.7,0.13l-0.29,1.16l-0.68-0.24c-0.12,0.28-0.27,0.55-0.45,0.79l0.54,0.46l-0.83,0.86       L35,44.77c-0.25,0.19-0.52,0.35-0.81,0.47l0.24,0.67L33.28,46.24z M33.36,45.22l0.13,0.68l0.59-0.17l-0.23-0.64l0.12-0.05       c0.35-0.13,0.67-0.32,0.96-0.56l0.1-0.08l0.45,0.52l0.43-0.44l-0.52-0.44l0.08-0.1c0.23-0.28,0.41-0.6,0.54-0.94l0.05-0.12       l0.65,0.23l0.15-0.6l-0.67-0.12l0.02-0.13c0.05-0.36,0.05-0.72,0-1.07l-0.02-0.13l0.68-0.13l-0.17-0.59l-0.64,0.23L36,40.44       c-0.13-0.33-0.3-0.64-0.52-0.91l-0.08-0.1l0.53-0.44l-0.44-0.44l-0.45,0.51l-0.1-0.08c-0.29-0.24-0.61-0.42-0.95-0.56       l-0.12-0.05l0.23-0.65l-0.6-0.16l-0.13,0.67l-0.13-0.02c-0.37-0.06-0.74-0.06-1.11,0l-0.13,0.02l-0.13-0.68l-0.59,0.17       l0.23,0.64l-0.12,0.05c-0.35,0.13-0.67,0.32-0.96,0.56l-0.1,0.08l-0.45-0.52l-0.43,0.44l0.52,0.44l-0.08,0.1       c-0.23,0.28-0.41,0.6-0.54,0.94l-0.05,0.12l-0.65-0.23l-0.15,0.6l0.67,0.12l-0.02,0.13c-0.05,0.36-0.05,0.72,0,1.07l0.02,0.13       l-0.68,0.13l0.17,0.59l0.64-0.23l0.05,0.12c0.13,0.33,0.3,0.64,0.52,0.91l0.08,0.1l-0.53,0.44l0.44,0.44l0.45-0.51l0.1,0.08       c0.29,0.24,0.61,0.42,0.95,0.56l0.12,0.05l-0.23,0.65l0.6,0.16l0.13-0.67l0.13,0.02c0.37,0.06,0.74,0.06,1.11,0L33.36,45.22z" class="colorfff svgShape"/></g></g><g fill="#981b1b" class="color000 svgShape"><rect width="13.42" height="3.31" x="26.11" y="6.32" fill="#f35555" fill-rule="evenodd" clip-rule="evenodd" class="colorfff svgShape"/><rect width="20.03" height="1.72" x="22.81" y="3.95" fill="#f35555" fill-rule="evenodd" clip-rule="evenodd" class="colorfff svgShape"/></g><g fill="#981b1b" class="color000 svgShape"><path fill="#f35555" stroke="#e71d1d" stroke-miterlimit="10" stroke-width=".206" d="M30.65,30.09H20.23l1.13-2.05h8.16L30.65,30.09z M20.68,29.82h9.51l-0.83-1.51h-7.85L20.68,29.82z" class="colorfff svgShape colorStrokefff svgStroke"/></g><path fill="#f35555" fill-rule="evenodd" stroke="#e71d1d" stroke-miterlimit="10" stroke-width=".206" d="M21.2,24.88c0,0.39,0.08,0.48,0.47,0.48c0.29,0,0.57,0,0.88,0c0.01,0.32,0.04,0.6-0.03,0.92     c-0.26,0-0.52,0-0.8,0c0,0.61,0,1.19,0,1.78h7.5c0-0.61,0-1.19,0-1.81c-0.28,0-0.53,0-0.79,0c0-0.31,0-0.57,0-0.88     c0.29,0,0.55,0.01,0.8,0c0.23-0.01,0.32-0.1,0.34-0.34c0.01-0.07,0-0.15,0-0.23c0-1.53,0-3.05,0-4.58c0-0.45,0-0.9,0-1.35     c0-0.35-0.08-0.43-0.44-0.43c-0.03,0-0.06,0-0.1,0c-2.44,0-4.88,0-7.32,0c-0.08,0-0.15,0-0.23,0c-0.18,0.02-0.27,0.11-0.29,0.29     c-0.01,0.06,0,0.13,0,0.19C21.2,20.91,21.2,22.89,21.2,24.88z M28.93,26.54c0,0.43,0,0.86,0,1.31c-2.31,0-4.6,0-6.9,0     c-0.01-0.08-0.02-0.14-0.02-0.2c0-0.36,0-0.73,0-1.11C24.32,26.54,26.61,26.54,28.93,26.54z M22.84,25.38c1.77,0,3.52,0,5.3,0     c0,0.3,0,0.56,0,0.83c-0.24,0.07-4.61,0.09-5.3,0.03C22.8,25.96,22.81,25.68,22.84,25.38z M21.48,18.73c2.6,0,5.19,0,7.8,0     c0,2.11,0,4.21,0,6.34c-2.6,0-5.19,0-7.8,0C21.48,22.95,21.48,20.85,21.48,18.73z" clip-rule="evenodd" class="colorfff svgShape colorStrokefff svgStroke"/><g fill="#981b1b" class="color000 svgShape"><path fill-rule="evenodd" d="M52.45,51.79L52.45,51.79c-0.55,0.32-1.11,0.64-1.67,0.93l0.47,0.93l-0.33,0.17l-1.04-0.64     c-0.03,0.01-0.06,0.03-0.08,0.04l0.47,0.93l-0.31,0.15l-0.47-0.93c-0.09,0.04-0.18,0.09-0.27,0.13c0.02,0.04,0.04,0.08,0.06,0.13     c0.1,0.22,0.13,0.41,0.09,0.6l1.23,2.64l2.99-3.14L52.45,51.79z" clip-rule="evenodd" opacity=".3" fill="#981b1b" class="color000 svgShape"/></g><g fill="#981b1b" class="color000 svgShape"><path fill-rule="evenodd" d="M16.01,54.42c-0.07-0.07-0.11-0.15-0.13-0.23c-0.02-0.08-0.02-0.16-0.01-0.23c0.02-0.11,0.08-0.25,0.16-0.44     l0.08-0.18c-0.12-0.06-0.24-0.11-0.35-0.17l-0.17,0.33c-0.07,0.13-0.13,0.23-0.19,0.29c-0.08,0.08-0.18,0.12-0.29,0.14     c-0.11,0.01-0.24-0.01-0.37-0.08c-0.16-0.08-0.26-0.19-0.3-0.32c-0.04-0.13-0.02-0.29,0.07-0.46l0.33,0.12     c-0.04,0.1-0.06,0.17-0.06,0.22c0.01,0.08,0.04,0.13,0.12,0.17c0.07,0.04,0.14,0.04,0.19,0.02c0.05-0.03,0.11-0.11,0.18-0.24     l0.18-0.35c-0.75-0.38-1.49-0.78-2.21-1.21c-0.01,0-0.02,0.01-0.02,0.01l-1.06,1.96l2.92,3.11l1.09-2.34     C16.09,54.5,16.04,54.46,16.01,54.42z" clip-rule="evenodd" opacity=".3" fill="#981b1b" class="color000 svgShape"/></g><g fill="#981b1b" class="color000 svgShape"><path fill="#f35555" fill-rule="evenodd" d="M26.54 56.17c-.04-.02-.13-.03-.26-.06l-.18-.03-.09.51.2.03c.14.02.24.03.29.02.05-.01.09-.03.13-.07.03-.04.06-.08.06-.13.01-.07 0-.12-.03-.17C26.64 56.23 26.6 56.19 26.54 56.17zM36.22 56.76c0-.06-.03-.11-.06-.14-.04-.04-.08-.06-.14-.06-.03 0-.12 0-.27.01l-.29.02.04.46.27-.02c.18-.01.29-.03.33-.05.04-.02.08-.05.1-.09C36.22 56.86 36.23 56.81 36.22 56.76z" clip-rule="evenodd" class="colorfff svgShape"/><polygon fill="#f35555" fill-rule="evenodd" points="29.48 57.33 29.98 57.37 29.78 56.67" clip-rule="evenodd" class="colorfff svgShape"/><path fill="#f35555" fill-rule="evenodd" d="M41.42,55.84c-0.11-0.08-0.24-0.11-0.39-0.07S40.77,55.88,40.7,56c-0.07,0.12-0.08,0.29-0.04,0.49     c0.04,0.2,0.12,0.34,0.24,0.43s0.25,0.11,0.39,0.08c0.14-0.03,0.25-0.11,0.32-0.23c0.07-0.12,0.08-0.29,0.04-0.5     C41.61,56.06,41.53,55.92,41.42,55.84z" clip-rule="evenodd" class="colorfff svgShape"/><path fill="#f35555" fill-rule="evenodd" d="M51.46,50.1c-5.46,3.23-11.83,5.09-18.63,5.09c-6.8,0-13.17-1.86-18.63-5.09l-2.12,3.62     c6.08,3.6,13.18,5.66,20.76,5.66c7.58,0,14.67-2.07,20.76-5.66L51.46,50.1z M15.39,53.8c-0.08,0.08-0.18,0.12-0.29,0.14     c-0.11,0.01-0.24-0.01-0.37-0.08c-0.16-0.08-0.26-0.19-0.3-0.32c-0.04-0.13-0.02-0.29,0.07-0.46l0.33,0.12     c-0.04,0.1-0.06,0.17-0.06,0.22c0.01,0.08,0.04,0.13,0.12,0.17c0.07,0.04,0.14,0.04,0.19,0.02c0.05-0.03,0.11-0.11,0.18-0.24     l0.54-1.05l0.33,0.17l-0.53,1.03C15.52,53.64,15.45,53.74,15.39,53.8z M17.14,54.53c-0.06,0.07-0.12,0.13-0.2,0.16     s-0.16,0.05-0.26,0.05c-0.1,0-0.21-0.04-0.34-0.1c-0.16-0.07-0.27-0.15-0.34-0.22c-0.07-0.07-0.11-0.15-0.13-0.23     c-0.02-0.08-0.02-0.16-0.01-0.23c0.02-0.11,0.08-0.25,0.16-0.44l0.41-0.89l0.34,0.15l-0.41,0.9c-0.07,0.14-0.1,0.24-0.11,0.28     c-0.02,0.07-0.01,0.14,0.03,0.21c0.04,0.07,0.1,0.12,0.19,0.16c0.1,0.04,0.18,0.06,0.24,0.04c0.07-0.02,0.12-0.05,0.15-0.1     c0.04-0.05,0.08-0.14,0.14-0.28l0.42-0.92l0.34,0.15l-0.4,0.87C17.27,54.32,17.19,54.45,17.14,54.53z M19.13,54.37l-0.35-0.12     c0.02-0.09,0.01-0.17-0.02-0.23c-0.03-0.06-0.1-0.11-0.19-0.14c-0.1-0.04-0.19-0.05-0.26-0.03c-0.05,0.01-0.08,0.04-0.1,0.08     c-0.02,0.04-0.01,0.08,0.01,0.12c0.03,0.05,0.12,0.13,0.27,0.24c0.15,0.11,0.26,0.2,0.32,0.27c0.06,0.07,0.1,0.16,0.12,0.25     c0.02,0.09,0,0.19-0.04,0.3c-0.04,0.1-0.1,0.18-0.19,0.24c-0.09,0.06-0.19,0.1-0.3,0.1c-0.12,0-0.25-0.03-0.39-0.09     c-0.21-0.09-0.36-0.2-0.43-0.35c-0.07-0.15-0.08-0.32-0.03-0.52l0.35,0.1c-0.03,0.12-0.02,0.22,0.02,0.3     c0.04,0.08,0.11,0.14,0.22,0.18c0.11,0.04,0.2,0.05,0.28,0.03c0.07-0.02,0.12-0.07,0.15-0.13c0.02-0.04,0.02-0.08,0.01-0.12     c-0.01-0.04-0.04-0.08-0.09-0.12c-0.03-0.03-0.12-0.09-0.24-0.18c-0.16-0.12-0.27-0.23-0.32-0.32c-0.07-0.14-0.07-0.27-0.02-0.4     c0.03-0.09,0.09-0.16,0.17-0.21c0.08-0.06,0.17-0.08,0.28-0.09c0.11,0,0.23,0.02,0.36,0.08c0.21,0.09,0.35,0.2,0.42,0.33     C19.18,54.07,19.19,54.21,19.13,54.37z M19.76,55.99l-0.35-0.12l0.51-1.43l-0.51-0.18l0.1-0.29l1.37,0.49l-0.1,0.29l-0.51-0.18     L19.76,55.99z M20.52,56.24l0.56-1.74l0.35,0.11l-0.56,1.74L20.52,56.24z M22.48,56.71c-0.15,0.06-0.32,0.06-0.51,0.01     c-0.23-0.07-0.4-0.2-0.51-0.4c-0.1-0.2-0.12-0.44-0.04-0.72c0.08-0.29,0.22-0.5,0.42-0.62c0.2-0.12,0.42-0.14,0.66-0.07     c0.21,0.06,0.37,0.17,0.47,0.34c0.06,0.1,0.09,0.22,0.09,0.37l-0.37-0.02c0.01-0.1-0.02-0.18-0.07-0.25     c-0.05-0.07-0.12-0.12-0.22-0.15c-0.13-0.04-0.25-0.02-0.36,0.05c-0.11,0.07-0.19,0.21-0.25,0.42c-0.06,0.22-0.07,0.39-0.02,0.51     c0.05,0.12,0.14,0.19,0.27,0.23c0.09,0.03,0.18,0.02,0.27-0.02c0.08-0.04,0.16-0.12,0.23-0.24l0.31,0.21     C22.75,56.54,22.62,56.65,22.48,56.71z M24.73,55.82l-0.96-0.23l-0.09,0.39l0.89,0.21l-0.07,0.3l-0.89-0.21l-0.11,0.48l0.99,0.23     l-0.07,0.3l-1.35-0.32l0.42-1.78l1.32,0.31L24.73,55.82z M27.08,56.51c-0.02,0.11-0.05,0.2-0.11,0.27     c-0.05,0.07-0.11,0.12-0.18,0.15c-0.07,0.03-0.14,0.05-0.2,0.05c-0.09,0-0.22-0.01-0.38-0.04l-0.24-0.04l-0.12,0.68l-0.36-0.06     l0.31-1.8l0.58,0.1c0.22,0.04,0.36,0.07,0.43,0.1c0.1,0.04,0.17,0.12,0.23,0.22C27.09,56.24,27.1,56.37,27.08,56.51z      M28.63,56.86l-0.04,0.31l-0.91-0.11l-0.06,0.49l1.01,0.13l-0.04,0.31l-1.38-0.17l0.23-1.81l1.34,0.17l-0.04,0.31l-0.98-0.12     l-0.05,0.4L28.63,56.86z M30.2,58.11l-0.13-0.43l-0.73-0.06l-0.18,0.4L28.77,58l0.85-1.77l0.39,0.03l0.59,1.88L30.2,58.11z      M31.3,57.74c0.08,0.1,0.19,0.15,0.32,0.16c0.1,0,0.18-0.03,0.26-0.09s0.13-0.16,0.16-0.29l0.35,0.12     c-0.06,0.2-0.16,0.34-0.29,0.44c-0.13,0.09-0.29,0.14-0.49,0.13c-0.24-0.01-0.44-0.1-0.59-0.27c-0.15-0.17-0.22-0.4-0.21-0.69     c0.01-0.3,0.1-0.54,0.26-0.7c0.16-0.16,0.37-0.24,0.63-0.23c0.22,0.01,0.4,0.08,0.54,0.21c0.08,0.08,0.14,0.19,0.18,0.34     l-0.37,0.08c-0.02-0.1-0.06-0.17-0.13-0.23c-0.07-0.06-0.15-0.09-0.25-0.09c-0.14,0-0.25,0.04-0.33,0.14     c-0.09,0.09-0.13,0.25-0.14,0.47C31.18,57.47,31.22,57.64,31.3,57.74z M32.74,58.2l-0.03-1.83l1.35-0.02l0.01,0.31l-0.99,0.02     l0.01,0.4l0.92-0.01l0,0.31l-0.92,0.01l0.01,0.5l1.02-0.02l0,0.31L32.74,58.2z M36.41,58.04l-0.3-0.38     c-0.11-0.13-0.18-0.22-0.21-0.25c-0.04-0.03-0.08-0.06-0.12-0.07c-0.04-0.01-0.1-0.01-0.19-0.01l-0.07,0.01l0.06,0.76l-0.37,0.03     l-0.14-1.82l0.77-0.06c0.19-0.02,0.34-0.01,0.43,0.02c0.09,0.03,0.17,0.08,0.23,0.16c0.06,0.08,0.09,0.17,0.1,0.28     c0.01,0.14-0.02,0.25-0.09,0.35c-0.07,0.1-0.19,0.16-0.35,0.2c0.08,0.04,0.15,0.09,0.21,0.14c0.06,0.05,0.13,0.14,0.23,0.28     L36.85,58L36.41,58.04z M37.1,57.97l-0.23-1.81l1.34-0.17l0.04,0.31l-0.98,0.12l0.05,0.4l0.91-0.11l0.04,0.31l-0.91,0.11     l0.06,0.49l1.01-0.13l0.04,0.31L37.1,57.97z M39.68,57.6l-0.39,0.07l-0.95-1.69l0.39-0.07l0.68,1.26l0.21-1.41l0.39-0.07     L39.68,57.6z M41.94,56.92c-0.12,0.2-0.31,0.32-0.57,0.38c-0.27,0.06-0.49,0.02-0.69-0.1c-0.19-0.13-0.32-0.33-0.38-0.62     c-0.04-0.18-0.05-0.34-0.02-0.48c0.02-0.1,0.06-0.19,0.11-0.28c0.05-0.09,0.12-0.16,0.2-0.21c0.1-0.07,0.22-0.12,0.37-0.16     c0.26-0.06,0.49-0.02,0.68,0.11c0.19,0.13,0.32,0.34,0.39,0.63C42.09,56.48,42.06,56.72,41.94,56.92z M42.56,56.99l-0.47-1.75     l0.36-0.1l0.39,1.45l0.89-0.24l0.08,0.3L42.56,56.99z M45.3,56.01c-0.03,0.08-0.09,0.14-0.16,0.21     c-0.07,0.06-0.18,0.12-0.32,0.16c-0.17,0.05-0.3,0.07-0.4,0.06c-0.1-0.01-0.18-0.04-0.25-0.08c-0.07-0.05-0.12-0.1-0.16-0.16     c-0.05-0.09-0.11-0.24-0.17-0.43l-0.29-0.93l0.35-0.11l0.3,0.94c0.05,0.15,0.08,0.25,0.11,0.29c0.04,0.07,0.09,0.11,0.16,0.14     c0.07,0.03,0.15,0.02,0.25-0.01c0.1-0.03,0.17-0.08,0.21-0.13c0.04-0.06,0.05-0.12,0.04-0.18c-0.01-0.06-0.03-0.16-0.08-0.3     l-0.31-0.96l0.35-0.11l0.29,0.91c0.07,0.21,0.1,0.36,0.11,0.45S45.33,55.93,45.3,56.01z M46.29,55.85l-0.52-1.42l-0.51,0.19     l-0.11-0.29l1.36-0.5l0.11,0.29l-0.51,0.19l0.52,1.42L46.29,55.85z M47.38,55.43l-0.68-1.7l0.34-0.14l0.68,1.7L47.38,55.43z      M49.33,54.36c-0.08,0.22-0.24,0.38-0.49,0.49c-0.25,0.11-0.48,0.12-0.69,0.04c-0.21-0.09-0.38-0.26-0.5-0.53     c-0.08-0.17-0.11-0.32-0.11-0.46c0-0.1,0.02-0.2,0.05-0.3c0.04-0.1,0.09-0.18,0.15-0.25c0.08-0.09,0.19-0.17,0.33-0.23     c0.25-0.11,0.48-0.12,0.69-0.03c0.22,0.09,0.38,0.27,0.5,0.54C49.39,53.9,49.41,54.15,49.33,54.36z M50.91,53.83l-1.19-0.73     l0.54,1.06l-0.31,0.15l-0.82-1.63l0.32-0.16l1.22,0.75l-0.55-1.09l0.31-0.15l0.82,1.63L50.91,53.83z" clip-rule="evenodd" class="colorfff svgShape"/><path fill="#f35555" fill-rule="evenodd" d="M48.6,53.41c-0.13-0.06-0.26-0.05-0.4,0.01c-0.14,0.06-0.23,0.16-0.27,0.29c-0.04,0.13-0.02,0.3,0.06,0.49     c0.08,0.19,0.19,0.31,0.32,0.37c0.13,0.06,0.26,0.06,0.4,0c0.13-0.06,0.22-0.16,0.27-0.29c0.04-0.13,0.02-0.3-0.06-0.49     C48.83,53.59,48.73,53.46,48.6,53.41z" clip-rule="evenodd" class="colorfff svgShape"/></g></g></svg></g></svg>